<?xml version="1.0" encoding="UTF-8" standalone="no"?>
<!DOCTYPE svg PUBLIC "-//W3C//DTD SVG 1.1//EN" "http://www.w3.org/Graphics/SVG/1.1/DTD/svg11.dtd">
<svg width="100%" height="100%" viewBox="0 0 1108 720" version="1.1" xmlns="http://www.w3.org/2000/svg" xmlns:xlink="http://www.w3.org/1999/xlink" xml:space="preserve" xmlns:serif="http://www.serif.com/" style="fill-rule:evenodd;clip-rule:evenodd;stroke-linejoin:round;stroke-miterlimit:2;">
    <g transform="matrix(1,0,0,1,338,128)">
        <path d="M0,12C0,5.373 5.373,0 12,0L420,0C426.627,0 432,5.373 432,12L432,452C432,458.627 426.627,464 420,464L12,464C5.373,464 0,458.627 0,452L0,12Z" style="fill:rgb(251,247,255);fill-rule:nonzero;"/>
    </g>
    <g transform="matrix(1,0,0,1,338,128)">
        <g>
            <clipPath id="_clip1">
                <path d="M0,12C0,5.373 5.373,0 12,0L420,0C426.627,0 432,5.373 432,12L432,452C432,458.627 426.627,464 420,464L12,464C5.373,464 0,458.627 0,452L0,12Z"/>
            </clipPath>
            <g clip-path="url(#_clip1)">
                <path d="M12,2L420,2L420,-2L12,-2L12,2ZM430,12L430,452L434,452L434,12L430,12ZM420,462L12,462L12,466L420,466L420,462ZM2,452L2,12L-2,12L-2,452L2,452ZM12,462C6.477,462 2,457.523 2,452L-2,452C-2,459.732 4.268,466 12,466L12,462ZM430,452C430,457.523 425.523,462 420,462L420,466C427.732,466 434,459.732 434,452L430,452ZM420,2C425.523,2 430,6.477 430,12L434,12C434,4.268 427.732,-2 420,-2L420,2ZM12,-2C4.268,-2 -2,4.268 -2,12L2,12C2,6.477 6.477,2 12,2L12,-2Z" style="fill:rgb(228,204,255);fill-rule:nonzero;"/>
            </g>
        </g>
    </g>
    <g transform="matrix(1,0,0,1,594,176)">
        <path d="M0,6C0,2.686 2.686,0 6,0L122,0C125.314,0 128,2.686 128,6L128,74C128,77.314 125.314,80 122,80L6,80C2.686,80 0,77.314 0,74L0,6Z" style="fill:rgb(255,199,194);fill-rule:nonzero;"/>
    </g>
    <g transform="matrix(1,0,0,1,602,203.636)">
        <path d="M37.005,6.364L37.005,-5.273L41.153,-5.273C42.058,-5.273 42.808,-5.108 43.403,-4.778C43.998,-4.449 44.443,-3.998 44.738,-3.426C45.034,-2.858 45.182,-2.218 45.182,-1.506C45.182,-0.79 45.032,-0.146 44.733,0.426C44.437,0.994 43.99,1.445 43.392,1.778C42.797,2.108 42.049,2.273 41.147,2.273L38.295,2.273L38.295,0.784L40.988,0.784C41.56,0.784 42.024,0.686 42.38,0.489C42.736,0.288 42.998,0.015 43.164,-0.329C43.331,-0.674 43.414,-1.066 43.414,-1.506C43.414,-1.945 43.331,-2.335 43.164,-2.676C42.998,-3.017 42.735,-3.284 42.375,-3.477C42.019,-3.67 41.549,-3.767 40.966,-3.767L38.761,-3.767L38.761,6.364L37.005,6.364ZM46.927,6.364L46.927,-2.364L48.569,-2.364L48.569,-0.977L48.66,-0.977C48.819,-1.447 49.1,-1.816 49.501,-2.085C49.907,-2.358 50.365,-2.494 50.876,-2.494C50.982,-2.494 51.107,-2.49 51.251,-2.483C51.399,-2.475 51.515,-2.466 51.598,-2.454L51.598,-0.829C51.53,-0.848 51.408,-0.869 51.234,-0.892C51.06,-0.919 50.886,-0.932 50.712,-0.932C50.31,-0.932 49.952,-0.847 49.638,-0.676C49.327,-0.509 49.081,-0.276 48.899,0.023C48.717,0.318 48.626,0.655 48.626,1.034L48.626,6.364L46.927,6.364ZM56.256,6.54C55.437,6.54 54.723,6.352 54.114,5.977C53.504,5.602 53.03,5.078 52.693,4.403C52.356,3.729 52.187,2.941 52.187,2.04C52.187,1.135 52.356,0.343 52.693,-0.335C53.03,-1.013 53.504,-1.54 54.114,-1.915C54.723,-2.29 55.437,-2.477 56.256,-2.477C57.074,-2.477 57.788,-2.29 58.398,-1.915C59.008,-1.54 59.481,-1.013 59.818,-0.335C60.155,0.343 60.324,1.135 60.324,2.04C60.324,2.941 60.155,3.729 59.818,4.403C59.481,5.078 59.008,5.602 58.398,5.977C57.788,6.352 57.074,6.54 56.256,6.54ZM56.261,5.114C56.792,5.114 57.231,4.974 57.58,4.693C57.928,4.413 58.186,4.04 58.352,3.574C58.523,3.108 58.608,2.595 58.608,2.034C58.608,1.477 58.523,0.966 58.352,0.5C58.186,0.03 57.928,-0.347 57.58,-0.631C57.231,-0.915 56.792,-1.057 56.261,-1.057C55.727,-1.057 55.284,-0.915 54.932,-0.631C54.583,-0.347 54.324,0.03 54.153,0.5C53.987,0.966 53.903,1.477 53.903,2.034C53.903,2.595 53.987,3.108 54.153,3.574C54.324,4.04 54.583,4.413 54.932,4.693C55.284,4.974 55.727,5.114 56.261,5.114ZM65.72,6.54C64.902,6.54 64.188,6.352 63.578,5.977C62.968,5.602 62.495,5.078 62.158,4.403C61.821,3.729 61.652,2.941 61.652,2.04C61.652,1.135 61.821,0.343 62.158,-0.335C62.495,-1.013 62.968,-1.54 63.578,-1.915C64.188,-2.29 64.902,-2.477 65.72,-2.477C66.538,-2.477 67.253,-2.29 67.862,-1.915C68.472,-1.54 68.946,-1.013 69.283,-0.335C69.62,0.343 69.788,1.135 69.788,2.04C69.788,2.941 69.62,3.729 69.283,4.403C68.946,5.078 68.472,5.602 67.862,5.977C67.253,6.352 66.538,6.54 65.72,6.54ZM65.726,5.114C66.256,5.114 66.696,4.974 67.044,4.693C67.393,4.413 67.65,4.04 67.817,3.574C67.987,3.108 68.073,2.595 68.073,2.034C68.073,1.477 67.987,0.966 67.817,0.5C67.65,0.03 67.393,-0.347 67.044,-0.631C66.696,-0.915 66.256,-1.057 65.726,-1.057C65.192,-1.057 64.749,-0.915 64.396,-0.631C64.048,-0.347 63.788,0.03 63.618,0.5C63.451,0.966 63.368,1.477 63.368,2.034C63.368,2.595 63.451,3.108 63.618,3.574C63.788,4.04 64.048,4.413 64.396,4.693C64.749,4.974 65.192,5.114 65.726,5.114ZM75.662,-2.364L75.662,-1L70.73,-1L70.73,-2.364L75.662,-2.364ZM72.083,6.364L72.083,-3.375C72.083,-3.92 72.202,-4.373 72.441,-4.733C72.679,-5.097 72.996,-5.367 73.389,-5.545C73.783,-5.727 74.211,-5.818 74.674,-5.818C75.014,-5.818 75.306,-5.79 75.549,-5.733C75.791,-5.68 75.971,-5.631 76.088,-5.585L75.691,-4.21C75.611,-4.233 75.509,-4.259 75.384,-4.29C75.259,-4.324 75.107,-4.341 74.929,-4.341C74.516,-4.341 74.221,-4.239 74.043,-4.034C73.869,-3.829 73.782,-3.534 73.782,-3.148L73.782,6.364L72.083,6.364ZM21.61,21.784C21.55,21.246 21.3,20.83 20.86,20.534C20.421,20.235 19.868,20.085 19.201,20.085C18.724,20.085 18.311,20.161 17.963,20.313C17.614,20.46 17.343,20.665 17.15,20.926C16.961,21.184 16.866,21.477 16.866,21.807C16.866,22.083 16.93,22.322 17.059,22.523C17.192,22.724 17.364,22.892 17.576,23.028C17.792,23.161 18.023,23.273 18.269,23.364C18.516,23.451 18.752,23.523 18.98,23.58L20.116,23.875C20.487,23.966 20.868,24.089 21.258,24.244C21.648,24.4 22.01,24.604 22.343,24.858C22.677,25.112 22.945,25.426 23.15,25.801C23.358,26.176 23.463,26.625 23.463,27.148C23.463,27.807 23.292,28.392 22.951,28.903C22.614,29.415 22.124,29.818 21.48,30.114C20.839,30.409 20.065,30.557 19.156,30.557C18.284,30.557 17.531,30.419 16.894,30.142C16.258,29.866 15.76,29.474 15.4,28.966C15.04,28.455 14.841,27.849 14.803,27.148L16.565,27.148C16.599,27.568 16.735,27.919 16.974,28.199C17.216,28.475 17.525,28.682 17.9,28.818C18.279,28.951 18.694,29.017 19.144,29.017C19.641,29.017 20.082,28.939 20.468,28.784C20.858,28.625 21.165,28.405 21.389,28.125C21.612,27.841 21.724,27.51 21.724,27.131C21.724,26.786 21.625,26.504 21.428,26.284C21.235,26.064 20.972,25.883 20.639,25.739C20.309,25.595 19.936,25.468 19.519,25.358L18.144,24.983C17.213,24.729 16.474,24.356 15.928,23.864C15.387,23.371 15.116,22.72 15.116,21.909C15.116,21.239 15.298,20.653 15.661,20.153C16.025,19.653 16.517,19.265 17.139,18.989C17.76,18.708 18.461,18.568 19.241,18.568C20.029,18.568 20.724,18.706 21.326,18.983C21.932,19.26 22.409,19.64 22.758,20.125C23.106,20.606 23.288,21.159 23.303,21.784L21.61,21.784ZM30.777,26.744L30.777,21.636L32.481,21.636L32.481,30.364L30.811,30.364L30.811,28.852L30.72,28.852C30.519,29.318 30.197,29.706 29.754,30.017C29.314,30.324 28.767,30.477 28.112,30.477C27.551,30.477 27.055,30.354 26.623,30.108C26.195,29.858 25.858,29.489 25.612,29C25.369,28.511 25.248,27.907 25.248,27.188L25.248,21.636L26.947,21.636L26.947,26.983C26.947,27.578 27.112,28.051 27.441,28.403C27.771,28.756 28.199,28.932 28.725,28.932C29.044,28.932 29.36,28.852 29.674,28.693C29.992,28.534 30.256,28.294 30.464,27.972C30.676,27.65 30.78,27.241 30.777,26.744ZM34.724,30.364L34.724,18.727L36.423,18.727L36.423,23.051L36.525,23.051C36.624,22.869 36.766,22.659 36.951,22.42C37.137,22.182 37.395,21.974 37.724,21.795C38.054,21.614 38.489,21.523 39.031,21.523C39.736,21.523 40.364,21.701 40.917,22.057C41.47,22.413 41.904,22.926 42.218,23.597C42.537,24.267 42.696,25.074 42.696,26.017C42.696,26.96 42.539,27.769 42.224,28.443C41.91,29.114 41.478,29.631 40.929,29.994C40.379,30.354 39.753,30.534 39.048,30.534C38.518,30.534 38.084,30.445 37.747,30.267C37.414,30.089 37.152,29.881 36.963,29.642C36.773,29.403 36.628,29.191 36.525,29.006L36.383,29.006L36.383,30.364L34.724,30.364ZM36.389,26C36.389,26.614 36.478,27.152 36.656,27.614C36.834,28.076 37.092,28.438 37.429,28.699C37.766,28.956 38.179,29.085 38.667,29.085C39.175,29.085 39.599,28.951 39.94,28.682C40.281,28.409 40.539,28.04 40.713,27.574C40.891,27.108 40.98,26.583 40.98,26C40.98,25.424 40.893,24.907 40.718,24.449C40.548,23.991 40.29,23.629 39.946,23.364C39.605,23.099 39.179,22.966 38.667,22.966C38.175,22.966 37.758,23.093 37.417,23.347C37.08,23.6 36.825,23.955 36.65,24.409C36.476,24.864 36.389,25.394 36.389,26ZM50.967,23.767L49.427,24.04C49.363,23.843 49.261,23.655 49.121,23.477C48.984,23.299 48.799,23.153 48.564,23.04C48.329,22.926 48.035,22.869 47.683,22.869C47.202,22.869 46.801,22.977 46.479,23.193C46.157,23.405 45.996,23.68 45.996,24.017C45.996,24.309 46.104,24.544 46.319,24.722C46.535,24.9 46.884,25.046 47.365,25.159L48.751,25.477C49.554,25.663 50.153,25.949 50.547,26.335C50.941,26.722 51.138,27.224 51.138,27.841C51.138,28.364 50.986,28.83 50.683,29.239C50.384,29.644 49.965,29.962 49.427,30.193C48.893,30.424 48.274,30.54 47.569,30.54C46.592,30.54 45.795,30.331 45.177,29.915C44.56,29.494 44.181,28.898 44.041,28.125L45.683,27.875C45.785,28.303 45.996,28.627 46.314,28.847C46.632,29.063 47.047,29.171 47.558,29.171C48.115,29.171 48.56,29.055 48.893,28.824C49.227,28.589 49.393,28.303 49.393,27.966C49.393,27.693 49.291,27.464 49.087,27.278C48.886,27.093 48.577,26.953 48.16,26.858L46.683,26.534C45.869,26.349 45.266,26.053 44.876,25.648C44.49,25.242 44.297,24.729 44.297,24.108C44.297,23.593 44.441,23.142 44.729,22.756C45.016,22.369 45.414,22.068 45.922,21.852C46.429,21.633 47.011,21.523 47.666,21.523C48.609,21.523 49.352,21.727 49.893,22.136C50.435,22.542 50.793,23.085 50.967,23.767ZM53.903,33.636C53.65,33.636 53.419,33.616 53.21,33.574C53.002,33.536 52.847,33.494 52.744,33.449L53.153,32.057C53.464,32.14 53.741,32.176 53.983,32.165C54.225,32.153 54.439,32.063 54.625,31.892C54.814,31.722 54.981,31.443 55.125,31.057L55.335,30.477L52.142,21.636L53.96,21.636L56.17,28.409L56.261,28.409L58.472,21.636L60.295,21.636L56.699,31.528C56.532,31.983 56.32,32.367 56.063,32.682C55.805,33 55.498,33.239 55.142,33.398C54.786,33.557 54.373,33.636 53.903,33.636ZM68.256,23.767L66.716,24.04C66.652,23.843 66.549,23.655 66.409,23.477C66.273,23.299 66.087,23.153 65.852,23.04C65.618,22.926 65.324,22.869 64.972,22.869C64.491,22.869 64.089,22.977 63.767,23.193C63.445,23.405 63.284,23.68 63.284,24.017C63.284,24.309 63.392,24.544 63.608,24.722C63.824,24.9 64.172,25.046 64.654,25.159L66.04,25.477C66.843,25.663 67.441,25.949 67.835,26.335C68.229,26.722 68.426,27.224 68.426,27.841C68.426,28.364 68.275,28.83 67.972,29.239C67.672,29.644 67.254,29.962 66.716,30.193C66.182,30.424 65.563,30.54 64.858,30.54C63.881,30.54 63.083,30.331 62.466,29.915C61.849,29.494 61.47,28.898 61.33,28.125L62.972,27.875C63.074,28.303 63.284,28.627 63.602,28.847C63.921,29.063 64.335,29.171 64.847,29.171C65.404,29.171 65.849,29.055 66.182,28.824C66.515,28.589 66.682,28.303 66.682,27.966C66.682,27.693 66.58,27.464 66.375,27.278C66.174,27.093 65.866,26.953 65.449,26.858L63.972,26.534C63.157,26.349 62.555,26.053 62.165,25.648C61.779,25.242 61.585,24.729 61.585,24.108C61.585,23.593 61.729,23.142 62.017,22.756C62.305,22.369 62.703,22.068 63.21,21.852C63.718,21.633 64.299,21.523 64.955,21.523C65.898,21.523 66.64,21.727 67.182,22.136C67.724,22.542 68.082,23.085 68.256,23.767ZM74.192,21.636L74.192,23L69.425,23L69.425,21.636L74.192,21.636ZM70.703,19.546L72.402,19.546L72.402,27.801C72.402,28.131 72.452,28.379 72.55,28.546C72.648,28.708 72.775,28.82 72.931,28.881C73.09,28.938 73.262,28.966 73.448,28.966C73.584,28.966 73.703,28.956 73.806,28.938C73.908,28.919 73.987,28.903 74.044,28.892L74.351,30.296C74.253,30.333 74.112,30.371 73.931,30.409C73.749,30.451 73.522,30.474 73.249,30.477C72.802,30.485 72.385,30.405 71.999,30.239C71.612,30.072 71.3,29.814 71.061,29.466C70.823,29.117 70.703,28.68 70.703,28.153L70.703,19.546ZM79.563,30.54C78.703,30.54 77.963,30.356 77.341,29.989C76.724,29.617 76.247,29.097 75.91,28.426C75.576,27.752 75.41,26.962 75.41,26.057C75.41,25.163 75.576,24.375 75.91,23.693C76.247,23.011 76.716,22.479 77.319,22.097C77.925,21.714 78.633,21.523 79.444,21.523C79.936,21.523 80.413,21.604 80.875,21.767C81.338,21.93 81.752,22.186 82.12,22.534C82.487,22.883 82.777,23.335 82.989,23.892C83.201,24.445 83.307,25.117 83.307,25.909L83.307,26.511L76.37,26.511L76.37,25.239L81.642,25.239C81.642,24.792 81.552,24.396 81.37,24.051C81.188,23.703 80.932,23.428 80.603,23.227C80.277,23.027 79.894,22.926 79.455,22.926C78.978,22.926 78.561,23.044 78.205,23.278C77.853,23.51 77.58,23.813 77.387,24.188C77.197,24.559 77.103,24.962 77.103,25.398L77.103,26.392C77.103,26.975 77.205,27.472 77.41,27.881C77.618,28.29 77.908,28.602 78.279,28.818C78.65,29.03 79.084,29.136 79.58,29.136C79.902,29.136 80.195,29.091 80.461,29C80.726,28.905 80.955,28.765 81.148,28.58C81.341,28.394 81.489,28.165 81.591,27.892L83.199,28.182C83.07,28.655 82.839,29.07 82.506,29.426C82.177,29.778 81.762,30.053 81.262,30.25C80.766,30.443 80.199,30.54 79.563,30.54ZM85.016,30.364L85.016,21.636L86.647,21.636L86.647,23.057L86.755,23.057C86.937,22.576 87.234,22.201 87.647,21.932C88.06,21.659 88.554,21.523 89.13,21.523C89.713,21.523 90.202,21.659 90.596,21.932C90.993,22.205 91.287,22.58 91.476,23.057L91.567,23.057C91.776,22.591 92.107,22.22 92.562,21.943C93.016,21.663 93.558,21.523 94.187,21.523C94.978,21.523 95.624,21.771 96.124,22.267C96.628,22.763 96.88,23.511 96.88,24.511L96.88,30.364L95.181,30.364L95.181,24.67C95.181,24.08 95.02,23.652 94.698,23.386C94.376,23.121 93.992,22.989 93.545,22.989C92.992,22.989 92.562,23.159 92.255,23.5C91.948,23.837 91.795,24.271 91.795,24.801L91.795,30.364L90.101,30.364L90.101,24.563C90.101,24.089 89.954,23.708 89.658,23.42C89.363,23.133 88.978,22.989 88.505,22.989C88.183,22.989 87.885,23.074 87.613,23.244C87.344,23.411 87.126,23.644 86.959,23.943C86.796,24.242 86.715,24.589 86.715,24.983L86.715,30.364L85.016,30.364Z" style="fill-opacity:0.8;fill-rule:nonzero;"/>
    </g>
    <g transform="matrix(1,0,0,1,386,176)">
        <path d="M0,6C0,2.686 2.686,0 6,0L122,0C125.314,0 128,2.686 128,6L128,74C128,77.314 125.314,80 122,80L6,80C2.686,80 0,77.314 0,74L0,6Z" style="fill:rgb(255,232,163);fill-rule:nonzero;"/>
    </g>
    <g transform="matrix(1,0,0,1,394,216.409)">
        <path d="M26.931,-2.989C26.87,-3.527 26.62,-3.943 26.181,-4.239C25.741,-4.538 25.188,-4.687 24.521,-4.687C24.044,-4.687 23.631,-4.612 23.283,-4.46C22.934,-4.313 22.664,-4.108 22.47,-3.847C22.281,-3.589 22.186,-3.295 22.186,-2.966C22.186,-2.689 22.251,-2.451 22.379,-2.25C22.512,-2.049 22.684,-1.881 22.896,-1.744C23.112,-1.612 23.343,-1.5 23.59,-1.409C23.836,-1.322 24.073,-1.25 24.3,-1.193L25.436,-0.898C25.807,-0.807 26.188,-0.684 26.578,-0.528C26.968,-0.373 27.33,-0.169 27.664,0.085C27.997,0.339 28.266,0.653 28.47,1.028C28.679,1.403 28.783,1.852 28.783,2.375C28.783,3.034 28.612,3.619 28.271,4.131C27.934,4.642 27.444,5.045 26.8,5.341C26.16,5.636 25.385,5.784 24.476,5.784C23.605,5.784 22.851,5.646 22.215,5.369C21.578,5.093 21.08,4.701 20.72,4.193C20.36,3.682 20.162,3.076 20.124,2.375L21.885,2.375C21.919,2.795 22.056,3.146 22.294,3.426C22.537,3.703 22.845,3.909 23.22,4.045C23.599,4.178 24.014,4.244 24.465,4.244C24.961,4.244 25.402,4.167 25.789,4.011C26.179,3.852 26.485,3.633 26.709,3.352C26.932,3.068 27.044,2.737 27.044,2.358C27.044,2.013 26.946,1.731 26.749,1.511C26.556,1.292 26.292,1.11 25.959,0.966C25.629,0.822 25.256,0.695 24.84,0.585L23.465,0.21C22.533,-0.044 21.794,-0.417 21.249,-0.909C20.707,-1.402 20.436,-2.053 20.436,-2.864C20.436,-3.534 20.618,-4.119 20.982,-4.619C21.345,-5.119 21.838,-5.508 22.459,-5.784C23.08,-6.064 23.781,-6.205 24.561,-6.205C25.349,-6.205 26.044,-6.066 26.646,-5.79C27.253,-5.513 27.73,-5.133 28.078,-4.648C28.427,-4.167 28.609,-3.614 28.624,-2.989L26.931,-2.989ZM34.642,-3.136L34.642,-1.773L29.875,-1.773L29.875,-3.136L34.642,-3.136ZM31.154,-5.227L32.853,-5.227L32.853,3.028C32.853,3.358 32.902,3.606 33,3.773C33.099,3.936 33.226,4.047 33.381,4.108C33.54,4.165 33.712,4.193 33.898,4.193C34.034,4.193 34.154,4.184 34.256,4.165C34.358,4.146 34.438,4.131 34.495,4.119L34.801,5.523C34.703,5.561 34.563,5.598 34.381,5.636C34.199,5.678 33.972,5.701 33.699,5.705C33.252,5.712 32.836,5.633 32.449,5.466C32.063,5.299 31.75,5.042 31.512,4.693C31.273,4.345 31.154,3.907 31.154,3.381L31.154,-5.227ZM39.928,5.767C39.11,5.767 38.396,5.58 37.786,5.205C37.176,4.83 36.703,4.305 36.365,3.631C36.028,2.956 35.86,2.169 35.86,1.267C35.86,0.362 36.028,-0.43 36.365,-1.108C36.703,-1.786 37.176,-2.313 37.786,-2.687C38.396,-3.062 39.11,-3.25 39.928,-3.25C40.746,-3.25 41.46,-3.062 42.07,-2.687C42.68,-2.313 43.153,-1.786 43.49,-1.108C43.828,-0.43 43.996,0.362 43.996,1.267C43.996,2.169 43.828,2.956 43.49,3.631C43.153,4.305 42.68,4.83 42.07,5.205C41.46,5.58 40.746,5.767 39.928,5.767ZM39.934,4.341C40.464,4.341 40.903,4.201 41.252,3.92C41.6,3.64 41.858,3.267 42.025,2.801C42.195,2.335 42.28,1.822 42.28,1.261C42.28,0.705 42.195,0.193 42.025,-0.273C41.858,-0.742 41.6,-1.119 41.252,-1.403C40.903,-1.687 40.464,-1.83 39.934,-1.83C39.4,-1.83 38.956,-1.687 38.604,-1.403C38.256,-1.119 37.996,-0.742 37.826,-0.273C37.659,0.193 37.576,0.705 37.576,1.261C37.576,1.822 37.659,2.335 37.826,2.801C37.996,3.267 38.256,3.64 38.604,3.92C38.956,4.201 39.4,4.341 39.934,4.341ZM45.716,5.591L45.716,-3.136L47.359,-3.136L47.359,-1.75L47.449,-1.75C47.609,-2.22 47.889,-2.589 48.29,-2.858C48.696,-3.131 49.154,-3.267 49.665,-3.267C49.771,-3.267 49.896,-3.263 50.04,-3.256C50.188,-3.248 50.304,-3.239 50.387,-3.227L50.387,-1.602C50.319,-1.621 50.198,-1.642 50.023,-1.665C49.849,-1.691 49.675,-1.705 49.501,-1.705C49.099,-1.705 48.741,-1.619 48.427,-1.449C48.116,-1.282 47.87,-1.049 47.688,-0.75C47.506,-0.455 47.415,-0.117 47.415,0.261L47.415,5.591L45.716,5.591ZM54.143,5.784C53.59,5.784 53.09,5.682 52.643,5.477C52.196,5.269 51.842,4.968 51.58,4.574C51.323,4.18 51.194,3.697 51.194,3.125C51.194,2.633 51.289,2.227 51.478,1.909C51.667,1.591 51.923,1.339 52.245,1.153C52.567,0.968 52.927,0.828 53.325,0.733C53.722,0.638 54.128,0.566 54.54,0.517C55.063,0.456 55.487,0.407 55.813,0.369C56.139,0.328 56.376,0.261 56.523,0.17C56.671,0.08 56.745,-0.068 56.745,-0.273L56.745,-0.313C56.745,-0.809 56.605,-1.193 56.325,-1.466C56.048,-1.739 55.635,-1.875 55.086,-1.875C54.514,-1.875 54.063,-1.748 53.734,-1.494C53.408,-1.244 53.183,-0.966 53.058,-0.659L51.461,-1.023C51.65,-1.553 51.927,-1.981 52.29,-2.307C52.658,-2.636 53.08,-2.875 53.558,-3.023C54.035,-3.174 54.537,-3.25 55.063,-3.25C55.412,-3.25 55.781,-3.208 56.171,-3.125C56.565,-3.045 56.933,-2.898 57.273,-2.682C57.618,-2.466 57.9,-2.157 58.12,-1.756C58.34,-1.358 58.45,-0.841 58.45,-0.205L58.45,5.591L56.79,5.591L56.79,4.398L56.722,4.398C56.612,4.617 56.448,4.833 56.228,5.045C56.008,5.258 55.726,5.434 55.381,5.574C55.037,5.714 54.624,5.784 54.143,5.784ZM54.512,4.42C54.982,4.42 55.383,4.328 55.717,4.142C56.054,3.956 56.309,3.714 56.484,3.415C56.662,3.112 56.751,2.788 56.751,2.443L56.751,1.318C56.69,1.379 56.573,1.436 56.398,1.489C56.228,1.538 56.033,1.581 55.813,1.619C55.594,1.653 55.379,1.686 55.171,1.716C54.963,1.742 54.789,1.765 54.648,1.784C54.319,1.826 54.018,1.896 53.745,1.994C53.476,2.093 53.26,2.235 53.097,2.42C52.938,2.602 52.859,2.845 52.859,3.148C52.859,3.568 53.014,3.886 53.325,4.102C53.635,4.314 54.031,4.42 54.512,4.42ZM64.195,9.045C63.502,9.045 62.906,8.955 62.406,8.773C61.909,8.591 61.504,8.35 61.19,8.051C60.875,7.752 60.641,7.424 60.485,7.068L61.945,6.466C62.048,6.633 62.184,6.809 62.355,6.994C62.529,7.184 62.764,7.345 63.059,7.477C63.358,7.61 63.743,7.676 64.212,7.676C64.856,7.676 65.389,7.519 65.809,7.205C66.23,6.894 66.44,6.398 66.44,5.716L66.44,4L66.332,4C66.23,4.186 66.082,4.392 65.889,4.619C65.699,4.847 65.438,5.044 65.105,5.21C64.771,5.377 64.337,5.46 63.803,5.46C63.114,5.46 62.493,5.299 61.94,4.977C61.391,4.652 60.955,4.172 60.633,3.54C60.315,2.903 60.156,2.121 60.156,1.193C60.156,0.265 60.313,-0.53 60.627,-1.193C60.945,-1.856 61.381,-2.364 61.934,-2.716C62.487,-3.072 63.114,-3.25 63.815,-3.25C64.356,-3.25 64.794,-3.159 65.127,-2.977C65.461,-2.799 65.72,-2.591 65.906,-2.352C66.095,-2.114 66.241,-1.903 66.343,-1.722L66.468,-1.722L66.468,-3.136L68.133,-3.136L68.133,5.784C68.133,6.534 67.959,7.15 67.61,7.631C67.262,8.112 66.79,8.468 66.195,8.699C65.605,8.93 64.938,9.045 64.195,9.045ZM64.178,4.051C64.667,4.051 65.08,3.938 65.417,3.71C65.758,3.479 66.016,3.15 66.19,2.722C66.368,2.29 66.457,1.773 66.457,1.17C66.457,0.583 66.37,0.066 66.195,-0.381C66.021,-0.828 65.766,-1.176 65.428,-1.426C65.091,-1.68 64.675,-1.807 64.178,-1.807C63.667,-1.807 63.241,-1.674 62.9,-1.409C62.559,-1.148 62.302,-0.792 62.127,-0.341C61.957,0.11 61.872,0.614 61.872,1.17C61.872,1.742 61.959,2.244 62.133,2.676C62.307,3.108 62.565,3.445 62.906,3.687C63.25,3.93 63.675,4.051 64.178,4.051ZM73.997,5.767C73.137,5.767 72.396,5.583 71.775,5.216C71.158,4.845 70.68,4.324 70.343,3.653C70.01,2.979 69.843,2.189 69.843,1.284C69.843,0.39 70.01,-0.398 70.343,-1.08C70.68,-1.761 71.15,-2.294 71.752,-2.676C72.358,-3.059 73.067,-3.25 73.877,-3.25C74.37,-3.25 74.847,-3.169 75.309,-3.006C75.771,-2.843 76.186,-2.587 76.554,-2.239C76.921,-1.89 77.211,-1.437 77.423,-0.881C77.635,-0.328 77.741,0.345 77.741,1.136L77.741,1.739L70.804,1.739L70.804,0.466L76.076,0.466C76.076,0.019 75.985,-0.377 75.804,-0.722C75.622,-1.07 75.366,-1.345 75.036,-1.545C74.711,-1.746 74.328,-1.847 73.889,-1.847C73.411,-1.847 72.995,-1.729 72.639,-1.494C72.286,-1.263 72.014,-0.96 71.821,-0.585C71.631,-0.214 71.536,0.189 71.536,0.625L71.536,1.619C71.536,2.203 71.639,2.699 71.843,3.108C72.052,3.517 72.341,3.83 72.713,4.045C73.084,4.258 73.518,4.364 74.014,4.364C74.336,4.364 74.629,4.318 74.894,4.227C75.16,4.133 75.389,3.992 75.582,3.807C75.775,3.621 75.923,3.392 76.025,3.119L77.633,3.409C77.504,3.883 77.273,4.297 76.94,4.653C76.61,5.006 76.196,5.28 75.696,5.477C75.199,5.67 74.633,5.767 73.997,5.767ZM80.588,-3.136L82.514,0.261L84.457,-3.136L86.315,-3.136L83.593,1.227L86.338,5.591L84.48,5.591L82.514,2.33L80.554,5.591L78.69,5.591L81.406,1.227L78.724,-3.136L80.588,-3.136ZM91.957,-3.136L91.957,-1.773L87.19,-1.773L87.19,-3.136L91.957,-3.136ZM88.469,-5.227L90.167,-5.227L90.167,3.028C90.167,3.358 90.217,3.606 90.315,3.773C90.414,3.936 90.541,4.047 90.696,4.108C90.855,4.165 91.027,4.193 91.213,4.193C91.349,4.193 91.469,4.184 91.571,4.165C91.673,4.146 91.753,4.131 91.81,4.119L92.116,5.523C92.018,5.561 91.878,5.598 91.696,5.636C91.514,5.678 91.287,5.701 91.014,5.705C90.567,5.712 90.15,5.633 89.764,5.466C89.378,5.299 89.065,5.042 88.827,4.693C88.588,4.345 88.469,3.907 88.469,3.381L88.469,-5.227Z" style="fill-opacity:0.8;fill-rule:nonzero;"/>
    </g>
    <g transform="matrix(1,0,0,1,522.5,186.154)">
        <path d="M63.5,31.846C64.605,31.846 65.5,30.951 65.5,29.846C65.5,28.742 64.605,27.846 63.5,27.846L63.5,31.846ZM-1.414,28.432C-2.195,29.213 -2.195,30.479 -1.414,31.26L11.314,43.988C12.095,44.769 13.361,44.769 14.142,43.988C14.923,43.207 14.923,41.941 14.142,41.16L2.828,29.846L14.142,18.532C14.923,17.751 14.923,16.485 14.142,15.704C13.361,14.923 12.095,14.923 11.314,15.704L-1.414,28.432ZM63.5,27.846L0,27.846L0,31.846L63.5,31.846L63.5,27.846Z" style="fill:rgb(179,179,179);fill-rule:nonzero;"/>
    </g>
    <g transform="matrix(1,0,0,1,594,320)">
        <path d="M0,6C0,2.686 2.686,0 6,0L122,0C125.314,0 128,2.686 128,6L128,74C128,77.314 125.314,80 122,80L6,80C2.686,80 0,77.314 0,74L0,6Z" style="fill:rgb(255,199,194);fill-rule:nonzero;"/>
    </g>
    <g transform="matrix(1,0,0,1,602,360.409)">
        <path d="M48.809,-2.262L47.036,-2.262C46.968,-2.64 46.841,-2.974 46.655,-3.262C46.47,-3.549 46.242,-3.794 45.974,-3.994C45.705,-4.195 45.403,-4.347 45.07,-4.449C44.741,-4.551 44.39,-4.602 44.019,-4.602C43.349,-4.602 42.748,-4.434 42.218,-4.097C41.691,-3.76 41.275,-3.265 40.968,-2.614C40.665,-1.962 40.513,-1.167 40.513,-0.227C40.513,0.72 40.665,1.519 40.968,2.17C41.275,2.822 41.693,3.314 42.224,3.648C42.754,3.981 43.35,4.148 44.013,4.148C44.381,4.148 44.729,4.098 45.059,4C45.392,3.898 45.693,3.748 45.962,3.551C46.231,3.354 46.458,3.113 46.644,2.829C46.833,2.542 46.964,2.212 47.036,1.841L48.809,1.846C48.714,2.418 48.53,2.945 48.258,3.426C47.989,3.903 47.642,4.316 47.218,4.665C46.797,5.009 46.316,5.276 45.775,5.466C45.233,5.655 44.642,5.75 44.002,5.75C42.994,5.75 42.097,5.511 41.309,5.034C40.521,4.553 39.9,3.865 39.445,2.971C38.994,2.077 38.769,1.011 38.769,-0.227C38.769,-1.47 38.996,-2.536 39.451,-3.426C39.905,-4.32 40.527,-5.006 41.314,-5.483C42.102,-5.964 42.998,-6.205 44.002,-6.205C44.619,-6.205 45.195,-6.116 45.729,-5.938C46.267,-5.763 46.75,-5.506 47.178,-5.165C47.606,-4.828 47.96,-4.415 48.241,-3.926C48.521,-3.441 48.71,-2.887 48.809,-2.262ZM50.597,5.591L50.597,-3.137L52.239,-3.137L52.239,-1.75L52.33,-1.75C52.489,-2.22 52.77,-2.589 53.171,-2.858C53.576,-3.131 54.035,-3.267 54.546,-3.267C54.652,-3.267 54.777,-3.263 54.921,-3.256C55.069,-3.248 55.184,-3.239 55.268,-3.227L55.268,-1.602C55.2,-1.621 55.078,-1.642 54.904,-1.665C54.73,-1.691 54.556,-1.705 54.381,-1.705C53.98,-1.705 53.622,-1.619 53.307,-1.449C52.997,-1.282 52.751,-1.049 52.569,-0.75C52.387,-0.455 52.296,-0.118 52.296,0.261L52.296,5.591L50.597,5.591ZM59.925,5.767C59.107,5.767 58.393,5.579 57.783,5.204C57.174,4.829 56.7,4.305 56.363,3.631C56.026,2.956 55.857,2.168 55.857,1.267C55.857,0.362 56.026,-0.43 56.363,-1.108C56.7,-1.786 57.174,-2.313 57.783,-2.688C58.393,-3.063 59.107,-3.25 59.925,-3.25C60.744,-3.25 61.458,-3.063 62.068,-2.688C62.677,-2.313 63.151,-1.786 63.488,-1.108C63.825,-0.43 63.994,0.362 63.994,1.267C63.994,2.168 63.825,2.956 63.488,3.631C63.151,4.305 62.677,4.829 62.068,5.204C61.458,5.579 60.744,5.767 59.925,5.767ZM59.931,4.341C60.461,4.341 60.901,4.201 61.249,3.92C61.598,3.64 61.855,3.267 62.022,2.801C62.193,2.335 62.278,1.822 62.278,1.261C62.278,0.704 62.193,0.193 62.022,-0.273C61.855,-0.743 61.598,-1.119 61.249,-1.404C60.901,-1.688 60.461,-1.83 59.931,-1.83C59.397,-1.83 58.954,-1.688 58.602,-1.404C58.253,-1.119 57.994,-0.743 57.823,-0.273C57.657,0.193 57.573,0.704 57.573,1.261C57.573,1.822 57.657,2.335 57.823,2.801C57.994,3.267 58.253,3.64 58.602,3.92C58.954,4.201 59.397,4.341 59.931,4.341ZM67.413,0.409L67.413,5.591L65.714,5.591L65.714,-3.137L67.345,-3.137L67.345,-1.716L67.453,-1.716C67.653,-2.178 67.968,-2.549 68.396,-2.83C68.828,-3.11 69.371,-3.25 70.026,-3.25C70.621,-3.25 71.142,-3.125 71.589,-2.875C72.036,-2.629 72.383,-2.262 72.629,-1.773C72.875,-1.284 72.998,-0.68 72.998,0.04L72.998,5.591L71.299,5.591L71.299,0.244C71.299,-0.388 71.134,-0.883 70.805,-1.239C70.475,-1.599 70.023,-1.779 69.447,-1.779C69.053,-1.779 68.703,-1.693 68.396,-1.523C68.093,-1.352 67.852,-1.102 67.674,-0.773C67.5,-0.447 67.413,-0.053 67.413,0.409Z" style="fill-opacity:0.8;fill-rule:nonzero;"/>
    </g>
    <g transform="matrix(1,0,0,1,386,464)">
        <path d="M0,6C0,2.686 2.686,0 6,0L122,0C125.314,0 128,2.686 128,6L128,74C128,77.314 125.314,80 122,80L6,80C2.686,80 0,77.314 0,74L0,6Z" style="fill:rgb(228,204,255);fill-rule:nonzero;"/>
    </g>
    <g transform="matrix(1,0,0,1,394,504.409)">
        <path d="M15.943,5.591L12.715,-6.046L14.562,-6.046L16.829,2.966L16.937,2.966L19.295,-6.046L21.124,-6.046L23.482,2.971L23.59,2.971L25.852,-6.046L27.704,-6.046L24.471,5.591L22.704,5.591L20.255,-3.125L20.164,-3.125L17.715,5.591L15.943,5.591ZM31.894,5.767C31.035,5.767 30.294,5.583 29.673,5.216C29.055,4.845 28.578,4.324 28.241,3.653C27.908,2.979 27.741,2.189 27.741,1.284C27.741,0.39 27.908,-0.398 28.241,-1.08C28.578,-1.761 29.048,-2.294 29.65,-2.676C30.256,-3.059 30.964,-3.25 31.775,-3.25C32.268,-3.25 32.745,-3.169 33.207,-3.006C33.669,-2.843 34.084,-2.587 34.451,-2.239C34.819,-1.89 35.108,-1.438 35.321,-0.881C35.533,-0.328 35.639,0.345 35.639,1.136L35.639,1.739L28.701,1.739L28.701,0.466L33.974,0.466C33.974,0.019 33.883,-0.377 33.701,-0.722C33.519,-1.07 33.264,-1.345 32.934,-1.546C32.608,-1.746 32.226,-1.847 31.786,-1.847C31.309,-1.847 30.893,-1.729 30.536,-1.494C30.184,-1.263 29.911,-0.96 29.718,-0.585C29.529,-0.214 29.434,0.189 29.434,0.625L29.434,1.619C29.434,2.203 29.536,2.699 29.741,3.108C29.949,3.517 30.239,3.829 30.61,4.045C30.982,4.257 31.415,4.364 31.911,4.364C32.233,4.364 32.527,4.318 32.792,4.227C33.057,4.132 33.286,3.992 33.48,3.807C33.673,3.621 33.821,3.392 33.923,3.119L35.531,3.409C35.402,3.882 35.171,4.297 34.838,4.653C34.508,5.006 34.093,5.28 33.593,5.477C33.097,5.67 32.531,5.767 31.894,5.767ZM37.484,5.591L37.484,-6.046L39.183,-6.046L39.183,-1.722L39.285,-1.722C39.384,-1.904 39.526,-2.114 39.711,-2.352C39.897,-2.591 40.154,-2.799 40.484,-2.977C40.814,-3.159 41.249,-3.25 41.791,-3.25C42.495,-3.25 43.124,-3.072 43.677,-2.716C44.23,-2.36 44.664,-1.847 44.978,-1.176C45.297,-0.506 45.456,0.301 45.456,1.244C45.456,2.187 45.298,2.996 44.984,3.67C44.67,4.341 44.238,4.858 43.689,5.221C43.139,5.581 42.512,5.761 41.808,5.761C41.278,5.761 40.844,5.672 40.507,5.494C40.173,5.316 39.912,5.108 39.723,4.869C39.533,4.631 39.387,4.418 39.285,4.233L39.143,4.233L39.143,5.591L37.484,5.591ZM39.149,1.227C39.149,1.841 39.238,2.379 39.416,2.841C39.594,3.303 39.851,3.665 40.189,3.926C40.526,4.184 40.939,4.312 41.427,4.312C41.935,4.312 42.359,4.178 42.7,3.909C43.041,3.636 43.298,3.267 43.473,2.801C43.651,2.335 43.74,1.81 43.74,1.227C43.74,0.651 43.653,0.134 43.478,-0.324C43.308,-0.782 43.05,-1.144 42.706,-1.409C42.365,-1.674 41.939,-1.807 41.427,-1.807C40.935,-1.807 40.518,-1.68 40.177,-1.426C39.84,-1.172 39.584,-0.818 39.41,-0.364C39.236,0.091 39.149,0.621 39.149,1.227ZM57.729,-2.989C57.668,-3.527 57.418,-3.943 56.979,-4.239C56.539,-4.538 55.986,-4.688 55.32,-4.688C54.842,-4.688 54.429,-4.612 54.081,-4.46C53.732,-4.313 53.462,-4.108 53.268,-3.847C53.079,-3.589 52.984,-3.296 52.984,-2.966C52.984,-2.69 53.049,-2.451 53.177,-2.25C53.31,-2.049 53.482,-1.881 53.695,-1.744C53.91,-1.612 54.142,-1.5 54.388,-1.409C54.634,-1.322 54.871,-1.25 55.098,-1.193L56.234,-0.898C56.606,-0.807 56.986,-0.684 57.376,-0.529C57.767,-0.373 58.128,-0.169 58.462,0.085C58.795,0.339 59.064,0.653 59.268,1.028C59.477,1.403 59.581,1.852 59.581,2.375C59.581,3.034 59.41,3.619 59.07,4.131C58.732,4.642 58.242,5.045 57.598,5.341C56.958,5.636 56.183,5.784 55.274,5.784C54.403,5.784 53.649,5.646 53.013,5.369C52.376,5.093 51.878,4.701 51.518,4.193C51.159,3.682 50.96,3.076 50.922,2.375L52.683,2.375C52.717,2.795 52.854,3.146 53.092,3.426C53.335,3.703 53.643,3.909 54.018,4.045C54.397,4.178 54.812,4.244 55.263,4.244C55.759,4.244 56.2,4.167 56.587,4.011C56.977,3.852 57.284,3.632 57.507,3.352C57.731,3.068 57.842,2.737 57.842,2.358C57.842,2.013 57.744,1.731 57.547,1.511C57.354,1.292 57.09,1.11 56.757,0.966C56.427,0.822 56.054,0.695 55.638,0.585L54.263,0.21C53.331,-0.044 52.592,-0.417 52.047,-0.909C51.505,-1.402 51.234,-2.053 51.234,-2.864C51.234,-3.534 51.416,-4.119 51.78,-4.619C52.143,-5.119 52.636,-5.508 53.257,-5.784C53.878,-6.065 54.579,-6.205 55.359,-6.205C56.147,-6.205 56.842,-6.066 57.445,-5.79C58.051,-5.513 58.528,-5.133 58.876,-4.648C59.225,-4.167 59.407,-3.614 59.422,-2.989L57.729,-2.989ZM65.128,5.767C64.268,5.767 63.528,5.583 62.906,5.216C62.289,4.845 61.812,4.324 61.474,3.653C61.141,2.979 60.974,2.189 60.974,1.284C60.974,0.39 61.141,-0.398 61.474,-1.08C61.812,-1.761 62.281,-2.294 62.884,-2.676C63.49,-3.059 64.198,-3.25 65.009,-3.25C65.501,-3.25 65.978,-3.169 66.44,-3.006C66.903,-2.843 67.317,-2.587 67.685,-2.239C68.052,-1.89 68.342,-1.438 68.554,-0.881C68.766,-0.328 68.872,0.345 68.872,1.136L68.872,1.739L61.935,1.739L61.935,0.466L67.207,0.466C67.207,0.019 67.117,-0.377 66.935,-0.722C66.753,-1.07 66.497,-1.345 66.168,-1.546C65.842,-1.746 65.459,-1.847 65.02,-1.847C64.543,-1.847 64.126,-1.729 63.77,-1.494C63.418,-1.263 63.145,-0.96 62.952,-0.585C62.762,-0.214 62.668,0.189 62.668,0.625L62.668,1.619C62.668,2.203 62.77,2.699 62.974,3.108C63.183,3.517 63.473,3.829 63.844,4.045C64.215,4.257 64.649,4.364 65.145,4.364C65.467,4.364 65.76,4.318 66.026,4.227C66.291,4.132 66.52,3.992 66.713,3.807C66.906,3.621 67.054,3.392 67.156,3.119L68.764,3.409C68.635,3.882 68.404,4.297 68.071,4.653C67.742,5.006 67.327,5.28 66.827,5.477C66.331,5.67 65.764,5.767 65.128,5.767ZM70.581,5.591L70.581,-3.136L72.223,-3.136L72.223,-1.75L72.314,-1.75C72.473,-2.22 72.754,-2.589 73.155,-2.858C73.56,-3.131 74.019,-3.267 74.53,-3.267C74.636,-3.267 74.761,-3.263 74.905,-3.256C75.053,-3.248 75.168,-3.239 75.252,-3.227L75.252,-1.602C75.183,-1.621 75.062,-1.642 74.888,-1.665C74.714,-1.691 74.54,-1.705 74.365,-1.705C73.964,-1.705 73.606,-1.619 73.291,-1.449C72.981,-1.282 72.735,-1.049 72.553,-0.75C72.371,-0.455 72.28,-0.118 72.28,0.261L72.28,5.591L70.581,5.591ZM84.277,-3.136L81.113,5.591L79.294,5.591L76.124,-3.136L77.948,-3.136L80.158,3.579L80.249,3.579L82.453,-3.136L84.277,-3.136ZM89.162,5.767C88.303,5.767 87.562,5.583 86.941,5.216C86.323,4.845 85.846,4.324 85.509,3.653C85.176,2.979 85.009,2.189 85.009,1.284C85.009,0.39 85.176,-0.398 85.509,-1.08C85.846,-1.761 86.316,-2.294 86.918,-2.676C87.524,-3.059 88.232,-3.25 89.043,-3.25C89.536,-3.25 90.013,-3.169 90.475,-3.006C90.937,-2.843 91.352,-2.587 91.719,-2.239C92.087,-1.89 92.376,-1.438 92.589,-0.881C92.801,-0.328 92.907,0.345 92.907,1.136L92.907,1.739L85.969,1.739L85.969,0.466L91.242,0.466C91.242,0.019 91.151,-0.377 90.969,-0.722C90.787,-1.07 90.532,-1.345 90.202,-1.546C89.876,-1.746 89.494,-1.847 89.054,-1.847C88.577,-1.847 88.161,-1.729 87.804,-1.494C87.452,-1.263 87.179,-0.96 86.986,-0.585C86.797,-0.214 86.702,0.189 86.702,0.625L86.702,1.619C86.702,2.203 86.804,2.699 87.009,3.108C87.217,3.517 87.507,3.829 87.878,4.045C88.25,4.257 88.683,4.364 89.179,4.364C89.501,4.364 89.795,4.318 90.06,4.227C90.325,4.132 90.554,3.992 90.748,3.807C90.941,3.621 91.089,3.392 91.191,3.119L92.799,3.409C92.67,3.882 92.439,4.297 92.106,4.653C91.776,5.006 91.361,5.28 90.861,5.477C90.365,5.67 89.799,5.767 89.162,5.767ZM94.616,5.591L94.616,-3.136L96.258,-3.136L96.258,-1.75L96.349,-1.75C96.508,-2.22 96.788,-2.589 97.19,-2.858C97.595,-3.131 98.053,-3.267 98.565,-3.267C98.671,-3.267 98.796,-3.263 98.94,-3.256C99.087,-3.248 99.203,-3.239 99.286,-3.227L99.286,-1.602C99.218,-1.621 99.097,-1.642 98.922,-1.665C98.748,-1.691 98.574,-1.705 98.4,-1.705C97.998,-1.705 97.64,-1.619 97.326,-1.449C97.015,-1.282 96.769,-1.049 96.587,-0.75C96.405,-0.455 96.315,-0.118 96.315,0.261L96.315,5.591L94.616,5.591Z" style="fill-opacity:0.8;fill-rule:nonzero;"/>
    </g>
    <g transform="matrix(1,0,0,1,594,464)">
        <path d="M0,6C0,2.686 2.686,0 6,0L122,0C125.314,0 128,2.686 128,6L128,74C128,77.314 125.314,80 122,80L6,80C2.686,80 0,77.314 0,74L0,6Z" style="fill:rgb(255,232,163);fill-rule:nonzero;"/>
    </g>
    <g transform="matrix(1,0,0,1,602,503.795)">
        <path d="M22.268,-1.648L20.496,-1.648C20.428,-2.027 20.301,-2.36 20.115,-2.648C19.929,-2.936 19.702,-3.18 19.433,-3.381C19.164,-3.581 18.863,-3.733 18.53,-3.835C18.2,-3.938 17.85,-3.989 17.479,-3.989C16.808,-3.989 16.208,-3.82 15.678,-3.483C15.151,-3.146 14.734,-2.652 14.428,-2C14.125,-1.348 13.973,-0.553 13.973,0.386C13.973,1.333 14.125,2.133 14.428,2.784C14.734,3.436 15.153,3.928 15.683,4.261C16.214,4.595 16.81,4.761 17.473,4.761C17.84,4.761 18.189,4.712 18.518,4.614C18.852,4.511 19.153,4.362 19.422,4.165C19.691,3.968 19.918,3.727 20.104,3.443C20.293,3.155 20.424,2.826 20.496,2.455L22.268,2.46C22.174,3.032 21.99,3.559 21.717,4.04C21.448,4.517 21.102,4.93 20.678,5.278C20.257,5.623 19.776,5.89 19.234,6.08C18.693,6.269 18.102,6.364 17.462,6.364C16.454,6.364 15.556,6.125 14.768,5.648C13.981,5.167 13.359,4.479 12.905,3.585C12.454,2.691 12.229,1.625 12.229,0.386C12.229,-0.856 12.456,-1.922 12.911,-2.813C13.365,-3.706 13.986,-4.392 14.774,-4.869C15.562,-5.35 16.458,-5.591 17.462,-5.591C18.079,-5.591 18.655,-5.502 19.189,-5.324C19.727,-5.15 20.21,-4.892 20.638,-4.551C21.066,-4.214 21.42,-3.801 21.7,-3.313C21.981,-2.828 22.17,-2.273 22.268,-1.648ZM25.098,6.205L23.235,6.205L27.422,-5.432L29.45,-5.432L33.638,6.205L31.774,6.205L28.485,-3.318L28.394,-3.318L25.098,6.205ZM25.411,1.648L31.456,1.648L31.456,3.125L25.411,3.125L25.411,1.648ZM35.142,6.205L35.142,-5.432L39.29,-5.432C40.192,-5.432 40.94,-5.277 41.534,-4.966C42.133,-4.655 42.58,-4.225 42.875,-3.676C43.171,-3.131 43.318,-2.5 43.318,-1.784C43.318,-1.072 43.169,-0.445 42.87,0.097C42.574,0.634 42.127,1.053 41.529,1.352C40.934,1.652 40.186,1.801 39.284,1.801L36.142,1.801L36.142,0.29L39.125,0.29C39.693,0.29 40.156,0.208 40.512,0.045C40.872,-0.117 41.135,-0.354 41.301,-0.665C41.468,-0.975 41.551,-1.348 41.551,-1.784C41.551,-2.223 41.466,-2.604 41.296,-2.926C41.129,-3.248 40.866,-3.494 40.506,-3.665C40.15,-3.839 39.682,-3.926 39.103,-3.926L36.898,-3.926L36.898,6.205L35.142,6.205ZM40.887,0.955L43.762,6.205L41.762,6.205L38.943,0.955L40.887,0.955ZM49.337,6.205L49.337,-5.432L51.093,-5.432L51.093,4.693L56.366,4.693L56.366,6.205L49.337,6.205ZM58.056,6.205L58.056,-2.523L59.755,-2.523L59.755,6.205L58.056,6.205ZM58.914,-3.869C58.619,-3.869 58.365,-3.968 58.153,-4.165C57.944,-4.366 57.84,-4.604 57.84,-4.881C57.84,-5.161 57.944,-5.4 58.153,-5.597C58.365,-5.797 58.619,-5.898 58.914,-5.898C59.21,-5.898 59.461,-5.797 59.67,-5.597C59.882,-5.4 59.988,-5.161 59.988,-4.881C59.988,-4.604 59.882,-4.366 59.67,-4.165C59.461,-3.968 59.21,-3.869 58.914,-3.869ZM62.001,6.205L62.001,-5.432L63.7,-5.432L63.7,-1.108L63.802,-1.108C63.9,-1.29 64.043,-1.5 64.228,-1.739C64.414,-1.977 64.671,-2.186 65.001,-2.364C65.33,-2.545 65.766,-2.636 66.308,-2.636C67.012,-2.636 67.641,-2.458 68.194,-2.102C68.747,-1.746 69.181,-1.233 69.495,-0.563C69.813,0.108 69.972,0.915 69.972,1.858C69.972,2.801 69.815,3.61 69.501,4.284C69.186,4.955 68.755,5.472 68.205,5.835C67.656,6.195 67.029,6.375 66.325,6.375C65.794,6.375 65.361,6.286 65.024,6.108C64.69,5.93 64.429,5.722 64.239,5.483C64.05,5.244 63.904,5.032 63.802,4.847L63.66,4.847L63.66,6.205L62.001,6.205ZM63.666,1.841C63.666,2.455 63.755,2.992 63.933,3.455C64.111,3.917 64.368,4.278 64.705,4.54C65.043,4.797 65.455,4.926 65.944,4.926C66.452,4.926 66.876,4.792 67.217,4.523C67.558,4.25 67.815,3.881 67.989,3.415C68.168,2.949 68.257,2.424 68.257,1.841C68.257,1.265 68.169,0.748 67.995,0.29C67.825,-0.169 67.567,-0.53 67.222,-0.795C66.882,-1.061 66.455,-1.193 65.944,-1.193C65.452,-1.193 65.035,-1.066 64.694,-0.813C64.357,-0.559 64.101,-0.205 63.927,0.25C63.753,0.705 63.666,1.235 63.666,1.841ZM71.704,6.205L71.704,-2.523L73.346,-2.523L73.346,-1.136L73.437,-1.136C73.596,-1.606 73.876,-1.975 74.278,-2.244C74.683,-2.517 75.142,-2.653 75.653,-2.653C75.759,-2.653 75.884,-2.65 76.028,-2.642C76.176,-2.634 76.291,-2.625 76.375,-2.614L76.375,-0.989C76.306,-1.008 76.185,-1.028 76.011,-1.051C75.837,-1.078 75.662,-1.091 75.488,-1.091C75.087,-1.091 74.729,-1.006 74.414,-0.835C74.104,-0.669 73.858,-0.436 73.676,-0.136C73.494,0.159 73.403,0.496 73.403,0.875L73.403,6.205L71.704,6.205ZM80.13,6.398C79.577,6.398 79.077,6.295 78.63,6.091C78.183,5.883 77.829,5.581 77.568,5.187C77.31,4.794 77.182,4.311 77.182,3.739C77.182,3.246 77.276,2.841 77.466,2.523C77.655,2.205 77.911,1.953 78.233,1.767C78.555,1.581 78.914,1.441 79.312,1.347C79.71,1.252 80.115,1.18 80.528,1.131C81.051,1.07 81.475,1.021 81.801,0.983C82.127,0.941 82.363,0.875 82.511,0.784C82.659,0.693 82.733,0.545 82.733,0.341L82.733,0.301C82.733,-0.195 82.592,-0.58 82.312,-0.852C82.036,-1.125 81.623,-1.261 81.074,-1.261C80.502,-1.261 80.051,-1.134 79.721,-0.881C79.396,-0.631 79.17,-0.352 79.045,-0.045L77.449,-0.409C77.638,-0.939 77.914,-1.367 78.278,-1.693C78.646,-2.023 79.068,-2.261 79.545,-2.409C80.022,-2.561 80.524,-2.636 81.051,-2.636C81.399,-2.636 81.769,-2.595 82.159,-2.511C82.553,-2.432 82.92,-2.284 83.261,-2.068C83.606,-1.852 83.888,-1.544 84.108,-1.142C84.327,-0.744 84.437,-0.227 84.437,0.409L84.437,6.205L82.778,6.205L82.778,5.011L82.71,5.011C82.6,5.231 82.435,5.447 82.216,5.659C81.996,5.871 81.714,6.047 81.369,6.187C81.024,6.328 80.611,6.398 80.13,6.398ZM80.5,5.034C80.969,5.034 81.371,4.941 81.704,4.756C82.041,4.57 82.297,4.328 82.471,4.028C82.649,3.725 82.738,3.402 82.738,3.057L82.738,1.932C82.678,1.992 82.56,2.049 82.386,2.102C82.216,2.152 82.021,2.195 81.801,2.233C81.581,2.267 81.367,2.299 81.159,2.33C80.95,2.356 80.776,2.379 80.636,2.398C80.307,2.439 80.005,2.509 79.733,2.608C79.464,2.706 79.248,2.848 79.085,3.034C78.926,3.216 78.846,3.458 78.846,3.761C78.846,4.182 79.002,4.5 79.312,4.716C79.623,4.928 80.019,5.034 80.5,5.034ZM86.524,6.205L86.524,-2.523L88.166,-2.523L88.166,-1.136L88.257,-1.136C88.416,-1.606 88.696,-1.975 89.098,-2.244C89.503,-2.517 89.961,-2.653 90.473,-2.653C90.579,-2.653 90.704,-2.65 90.848,-2.642C90.996,-2.634 91.111,-2.625 91.194,-2.614L91.194,-0.989C91.126,-1.008 91.005,-1.028 90.831,-1.051C90.657,-1.078 90.482,-1.091 90.308,-1.091C89.907,-1.091 89.549,-1.006 89.234,-0.835C88.924,-0.669 88.677,-0.436 88.496,-0.136C88.314,0.159 88.223,0.496 88.223,0.875L88.223,6.205L86.524,6.205ZM93.828,9.477C93.574,9.477 93.343,9.456 93.135,9.415C92.927,9.377 92.771,9.335 92.669,9.29L93.078,7.898C93.389,7.981 93.665,8.017 93.908,8.006C94.15,7.994 94.364,7.903 94.55,7.733C94.739,7.563 94.906,7.284 95.05,6.898L95.26,6.318L92.067,-2.523L93.885,-2.523L96.095,4.25L96.186,4.25L98.396,-2.523L100.22,-2.523L96.624,7.369C96.457,7.824 96.245,8.208 95.987,8.523C95.73,8.841 95.423,9.08 95.067,9.239C94.711,9.398 94.298,9.477 93.828,9.477Z" style="fill-opacity:0.8;fill-rule:nonzero;"/>
    </g>
    <g transform="matrix(1,0,0,1,522,474.154)">
        <path d="M0,27.846C-1.105,27.846 -2,28.742 -2,29.846C-2,30.951 -1.105,31.846 0,31.846L0,27.846ZM64.914,31.26C65.695,30.479 65.695,29.213 64.914,28.432L52.186,15.704C51.405,14.923 50.139,14.923 49.358,15.704C48.577,16.485 48.577,17.751 49.358,18.532L60.672,29.846L49.358,41.16C48.577,41.941 48.577,43.207 49.358,43.988C50.139,44.769 51.405,44.769 52.186,43.988L64.914,31.26ZM0,31.846L63.5,31.846L63.5,27.846L0,27.846L0,31.846Z" style="fill:rgb(179,179,179);fill-rule:nonzero;"/>
    </g>
    <g transform="matrix(1,0,0,1,658,260.109)">
        <path d="M-2,51.891C-2,52.995 -1.105,53.891 0,53.891C1.105,53.891 2,52.995 2,51.891L-2,51.891ZM1.414,2.976C0.633,2.195 -0.633,2.195 -1.414,2.976L-14.142,15.704C-14.923,16.485 -14.923,17.752 -14.142,18.533C-13.361,19.314 -12.095,19.314 -11.314,18.533L0,7.219L11.314,18.533C12.095,19.314 13.361,19.314 14.142,18.533C14.923,17.752 14.923,16.485 14.142,15.704L1.414,2.976ZM2,51.891L2,4.391L-2,4.391L-2,51.891L2,51.891Z" style="fill:rgb(179,179,179);fill-rule:nonzero;"/>
    </g>
    <g transform="matrix(1,0,0,1,730,474.154)">
        <path d="M0,27.846C-1.105,27.846 -2,28.742 -2,29.846C-2,30.951 -1.105,31.846 0,31.846L0,27.846ZM112.914,31.26C113.695,30.479 113.695,29.213 112.914,28.432L100.186,15.704C99.405,14.923 98.139,14.923 97.358,15.704C96.577,16.485 96.577,17.751 97.358,18.532L108.672,29.846L97.358,41.16C96.577,41.941 96.577,43.207 97.358,43.988C98.139,44.769 99.405,44.769 100.186,43.988L112.914,31.26ZM0,31.846L111.5,31.846L111.5,27.846L0,27.846L0,31.846Z" style="fill:rgb(179,179,179);fill-rule:nonzero;"/>
    </g>
    <g transform="matrix(1,0,0,1,850,176)">
        <path d="M0,6C0,2.686 2.686,0 6,0L122,0C125.314,0 128,2.686 128,6L128,74C128,77.314 125.314,80 122,80L6,80C2.686,80 0,77.314 0,74L0,6Z" style="fill:rgb(230,230,230);fill-rule:nonzero;"/>
    </g>
    <g transform="matrix(1,0,0,1,850,172)">
        <path d="M6,6L122,6L122,2L6,2L6,6ZM126,10L126,78L130,78L130,10L126,10ZM122,82L6,82L6,86L122,86L122,82ZM2,78L2,10L-2,10L-2,78L2,78ZM6,82C3.791,82 2,80.209 2,78L-2,78C-2,82.418 1.582,86 6,86L6,82ZM126,78C126,80.209 124.209,82 122,82L122,86C126.418,86 130,82.418 130,78L126,78ZM122,6C124.209,6 126,7.791 126,10L130,10C130,5.582 126.418,2 122,2L122,6ZM6,2C1.582,2 -2,5.582 -2,10L2,10C2,7.791 3.791,6 6,6L6,2Z" style="fill:rgb(182,182,182);fill-rule:nonzero;"/>
    </g>
    <g transform="matrix(1,0,0,1,858,216.409)">
        <path d="M48.322,-2.369C48.212,-2.714 48.064,-3.023 47.878,-3.296C47.697,-3.572 47.479,-3.807 47.225,-4C46.971,-4.197 46.681,-4.347 46.356,-4.449C46.034,-4.551 45.68,-4.602 45.293,-4.602C44.638,-4.602 44.047,-4.434 43.52,-4.097C42.994,-3.76 42.577,-3.265 42.27,-2.614C41.967,-1.966 41.816,-1.172 41.816,-0.233C41.816,0.71 41.969,1.507 42.276,2.159C42.583,2.81 43.003,3.305 43.538,3.642C44.072,3.979 44.68,4.148 45.361,4.148C45.994,4.148 46.545,4.019 47.015,3.761C47.488,3.504 47.854,3.14 48.111,2.67C48.373,2.197 48.503,1.64 48.503,1L48.958,1.085L45.628,1.085L45.628,-0.364L50.202,-0.364L50.202,0.96C50.202,1.937 49.994,2.786 49.577,3.506C49.164,4.221 48.592,4.775 47.861,5.165C47.134,5.555 46.301,5.75 45.361,5.75C44.308,5.75 43.384,5.507 42.589,5.023C41.797,4.538 41.18,3.85 40.736,2.96C40.293,2.066 40.072,1.006 40.072,-0.222C40.072,-1.15 40.2,-1.983 40.458,-2.722C40.716,-3.46 41.077,-4.087 41.543,-4.602C42.013,-5.121 42.564,-5.517 43.197,-5.79C43.833,-6.066 44.528,-6.205 45.282,-6.205C45.911,-6.205 46.496,-6.112 47.038,-5.926C47.583,-5.741 48.068,-5.477 48.492,-5.136C48.92,-4.796 49.274,-4.39 49.555,-3.921C49.835,-3.455 50.024,-2.938 50.123,-2.369L48.322,-2.369ZM52.255,5.591L52.255,-6.046L56.403,-6.046C57.308,-6.046 58.058,-5.881 58.653,-5.551C59.247,-5.222 59.692,-4.771 59.988,-4.199C60.283,-3.631 60.431,-2.991 60.431,-2.279C60.431,-1.563 60.281,-0.919 59.982,-0.347C59.687,0.221 59.24,0.672 58.641,1.006C58.047,1.335 57.299,1.5 56.397,1.5L53.545,1.5L53.545,0.011L56.238,0.011C56.81,0.011 57.274,-0.087 57.63,-0.284C57.986,-0.485 58.247,-0.758 58.414,-1.102C58.581,-1.447 58.664,-1.839 58.664,-2.279C58.664,-2.718 58.581,-3.108 58.414,-3.449C58.247,-3.79 57.984,-4.057 57.624,-4.25C57.268,-4.443 56.799,-4.54 56.215,-4.54L54.011,-4.54L54.011,5.591L52.255,5.591ZM69.796,-6.046L71.558,-6.046L71.558,1.608C71.558,2.422 71.366,3.144 70.984,3.773C70.601,4.398 70.063,4.89 69.37,5.25C68.677,5.606 67.864,5.784 66.933,5.784C66.005,5.784 65.194,5.606 64.501,5.25C63.808,4.89 63.27,4.398 62.887,3.773C62.505,3.144 62.313,2.422 62.313,1.608L62.313,-6.046L64.069,-6.046L64.069,1.466C64.069,1.992 64.185,2.46 64.416,2.869C64.65,3.278 64.982,3.6 65.41,3.835C65.838,4.066 66.346,4.182 66.933,4.182C67.524,4.182 68.033,4.066 68.461,3.835C68.893,3.6 69.222,3.278 69.45,2.869C69.681,2.46 69.796,1.992 69.796,1.466L69.796,-6.046Z" style="fill-opacity:0.8;fill-rule:nonzero;"/>
    </g>
    <g transform="matrix(1,0,0,1,730.5,186.154)">
        <path d="M-1.414,28.432C-2.195,29.213 -2.195,30.479 -1.414,31.26L11.314,43.988C12.095,44.769 13.361,44.769 14.142,43.988C14.923,43.207 14.923,41.941 14.142,41.16L2.828,29.846L14.142,18.532C14.923,17.751 14.923,16.485 14.142,15.704C13.361,14.923 12.095,14.923 11.314,15.704L-1.414,28.432ZM112.414,31.26C113.195,30.479 113.195,29.213 112.414,28.432L99.686,15.704C98.905,14.923 97.639,14.923 96.858,15.704C96.077,16.485 96.077,17.751 96.858,18.532L108.172,29.846L96.858,41.16C96.077,41.941 96.077,43.207 96.858,43.988C97.639,44.769 98.905,44.769 99.686,43.988L112.414,31.26ZM0,31.846L111,31.846L111,27.846L0,27.846L0,31.846Z" style="fill:rgb(179,179,179);fill-rule:nonzero;"/>
    </g>
    <g transform="matrix(1,0,0,1,850,464)">
        <path d="M0,6C0,2.686 2.686,0 6,0L122,0C125.314,0 128,2.686 128,6L128,74C128,77.314 125.314,80 122,80L6,80C2.686,80 0,77.314 0,74L0,6Z" style="fill:rgb(230,230,230);fill-rule:nonzero;"/>
    </g>
    <g transform="matrix(1,0,0,1,850,460)">
        <path d="M6,6L122,6L122,2L6,2L6,6ZM126,10L126,78L130,78L130,10L126,10ZM122,82L6,82L6,86L122,86L122,82ZM2,78L2,10L-2,10L-2,78L2,78ZM6,82C3.791,82 2,80.209 2,78L-2,78C-2,82.418 1.582,86 6,86L6,82ZM126,78C126,80.209 124.209,82 122,82L122,86C126.418,86 130,82.418 130,78L126,78ZM122,6C124.209,6 126,7.791 126,10L130,10C130,5.582 126.418,2 122,2L122,6ZM6,2C1.582,2 -2,5.582 -2,10L2,10C2,7.791 3.791,6 6,6L6,2Z" style="fill:rgb(182,182,182);fill-rule:nonzero;"/>
    </g>
    <g transform="matrix(1,0,0,1,858,504.409)">
        <path d="M34.036,-2.989C33.975,-3.527 33.725,-3.943 33.286,-4.239C32.846,-4.538 32.293,-4.687 31.627,-4.687C31.149,-4.687 30.737,-4.612 30.388,-4.46C30.04,-4.313 29.769,-4.108 29.576,-3.847C29.386,-3.589 29.291,-3.295 29.291,-2.966C29.291,-2.689 29.356,-2.451 29.485,-2.25C29.617,-2.049 29.79,-1.881 30.002,-1.744C30.218,-1.612 30.449,-1.5 30.695,-1.409C30.941,-1.322 31.178,-1.25 31.405,-1.193L32.541,-0.898C32.913,-0.807 33.293,-0.684 33.684,-0.528C34.074,-0.373 34.435,-0.169 34.769,0.085C35.102,0.339 35.371,0.653 35.576,1.028C35.784,1.403 35.888,1.852 35.888,2.375C35.888,3.034 35.718,3.619 35.377,4.131C35.04,4.642 34.549,5.045 33.905,5.341C33.265,5.636 32.49,5.784 31.581,5.784C30.71,5.784 29.956,5.646 29.32,5.369C28.684,5.093 28.185,4.701 27.826,4.193C27.466,3.682 27.267,3.076 27.229,2.375L28.99,2.375C29.024,2.795 29.161,3.146 29.399,3.426C29.642,3.703 29.951,3.909 30.326,4.045C30.704,4.178 31.119,4.244 31.57,4.244C32.066,4.244 32.507,4.167 32.894,4.011C33.284,3.852 33.591,3.633 33.814,3.352C34.038,3.068 34.149,2.737 34.149,2.358C34.149,2.013 34.051,1.731 33.854,1.511C33.661,1.292 33.398,1.11 33.064,0.966C32.735,0.822 32.362,0.695 31.945,0.585L30.57,0.21C29.638,-0.044 28.899,-0.417 28.354,-0.909C27.812,-1.402 27.541,-2.053 27.541,-2.864C27.541,-3.534 27.723,-4.119 28.087,-4.619C28.451,-5.119 28.943,-5.508 29.564,-5.784C30.185,-6.064 30.886,-6.205 31.666,-6.205C32.454,-6.205 33.149,-6.066 33.752,-5.79C34.358,-5.513 34.835,-5.133 35.184,-4.648C35.532,-4.167 35.714,-3.614 35.729,-2.989L34.036,-2.989ZM41.748,-3.136L41.748,-1.773L36.981,-1.773L36.981,-3.136L41.748,-3.136ZM38.259,-5.227L39.958,-5.227L39.958,3.028C39.958,3.358 40.007,3.606 40.106,3.773C40.204,3.936 40.331,4.047 40.486,4.108C40.645,4.165 40.818,4.193 41.003,4.193C41.14,4.193 41.259,4.184 41.361,4.165C41.464,4.146 41.543,4.131 41.6,4.119L41.907,5.523C41.808,5.561 41.668,5.598 41.486,5.636C41.304,5.678 41.077,5.701 40.804,5.705C40.357,5.712 39.941,5.633 39.554,5.466C39.168,5.299 38.856,5.042 38.617,4.693C38.378,4.345 38.259,3.907 38.259,3.381L38.259,-5.227ZM47.033,5.767C46.215,5.767 45.501,5.58 44.891,5.205C44.281,4.83 43.808,4.305 43.471,3.631C43.134,2.956 42.965,2.169 42.965,1.267C42.965,0.362 43.134,-0.43 43.471,-1.108C43.808,-1.786 44.281,-2.313 44.891,-2.687C45.501,-3.062 46.215,-3.25 47.033,-3.25C47.851,-3.25 48.565,-3.062 49.175,-2.687C49.785,-2.313 50.259,-1.786 50.596,-1.108C50.933,-0.43 51.101,0.362 51.101,1.267C51.101,2.169 50.933,2.956 50.596,3.631C50.259,4.305 49.785,4.83 49.175,5.205C48.565,5.58 47.851,5.767 47.033,5.767ZM47.039,4.341C47.569,4.341 48.009,4.201 48.357,3.92C48.706,3.64 48.963,3.267 49.13,2.801C49.3,2.335 49.386,1.822 49.386,1.261C49.386,0.705 49.3,0.193 49.13,-0.273C48.963,-0.742 48.706,-1.119 48.357,-1.403C48.009,-1.687 47.569,-1.83 47.039,-1.83C46.505,-1.83 46.062,-1.687 45.709,-1.403C45.361,-1.119 45.101,-0.742 44.931,-0.273C44.764,0.193 44.681,0.705 44.681,1.261C44.681,1.822 44.764,2.335 44.931,2.801C45.101,3.267 45.361,3.64 45.709,3.92C46.062,4.201 46.505,4.341 47.039,4.341ZM52.822,5.591L52.822,-3.136L54.464,-3.136L54.464,-1.75L54.555,-1.75C54.714,-2.22 54.994,-2.589 55.396,-2.858C55.801,-3.131 56.259,-3.267 56.771,-3.267C56.877,-3.267 57.002,-3.263 57.146,-3.256C57.293,-3.248 57.409,-3.239 57.492,-3.227L57.492,-1.602C57.424,-1.621 57.303,-1.642 57.129,-1.665C56.954,-1.691 56.78,-1.705 56.606,-1.705C56.204,-1.705 55.846,-1.619 55.532,-1.449C55.221,-1.282 54.975,-1.049 54.793,-0.75C54.612,-0.455 54.521,-0.117 54.521,0.261L54.521,5.591L52.822,5.591ZM61.248,5.784C60.695,5.784 60.195,5.682 59.748,5.477C59.301,5.269 58.947,4.968 58.686,4.574C58.428,4.18 58.299,3.697 58.299,3.125C58.299,2.633 58.394,2.227 58.583,1.909C58.773,1.591 59.028,1.339 59.35,1.153C59.672,0.968 60.032,0.828 60.43,0.733C60.828,0.638 61.233,0.566 61.646,0.517C62.168,0.456 62.593,0.407 62.918,0.369C63.244,0.328 63.481,0.261 63.629,0.17C63.776,0.08 63.85,-0.068 63.85,-0.273L63.85,-0.313C63.85,-0.809 63.71,-1.193 63.43,-1.466C63.153,-1.739 62.74,-1.875 62.191,-1.875C61.619,-1.875 61.168,-1.748 60.839,-1.494C60.513,-1.244 60.288,-0.966 60.163,-0.659L58.566,-1.023C58.756,-1.553 59.032,-1.981 59.396,-2.307C59.763,-2.636 60.186,-2.875 60.663,-3.023C61.14,-3.174 61.642,-3.25 62.168,-3.25C62.517,-3.25 62.886,-3.208 63.276,-3.125C63.67,-3.045 64.038,-2.898 64.379,-2.682C64.723,-2.466 65.006,-2.157 65.225,-1.756C65.445,-1.358 65.555,-0.841 65.555,-0.205L65.555,5.591L63.896,5.591L63.896,4.398L63.828,4.398C63.718,4.617 63.553,4.833 63.333,5.045C63.114,5.258 62.831,5.434 62.487,5.574C62.142,5.714 61.729,5.784 61.248,5.784ZM61.617,4.42C62.087,4.42 62.489,4.328 62.822,4.142C63.159,3.956 63.415,3.714 63.589,3.415C63.767,3.112 63.856,2.788 63.856,2.443L63.856,1.318C63.795,1.379 63.678,1.436 63.504,1.489C63.333,1.538 63.138,1.581 62.918,1.619C62.699,1.653 62.485,1.686 62.276,1.716C62.068,1.742 61.894,1.765 61.754,1.784C61.424,1.826 61.123,1.896 60.85,1.994C60.581,2.093 60.365,2.235 60.203,2.42C60.043,2.602 59.964,2.845 59.964,3.148C59.964,3.568 60.119,3.886 60.43,4.102C60.74,4.314 61.136,4.42 61.617,4.42ZM71.301,9.045C70.608,9.045 70.011,8.955 69.511,8.773C69.015,8.591 68.609,8.35 68.295,8.051C67.981,7.752 67.746,7.424 67.59,7.068L69.051,6.466C69.153,6.633 69.289,6.809 69.46,6.994C69.634,7.184 69.869,7.345 70.164,7.477C70.464,7.61 70.848,7.676 71.318,7.676C71.962,7.676 72.494,7.519 72.914,7.205C73.335,6.894 73.545,6.398 73.545,5.716L73.545,4L73.437,4C73.335,4.186 73.187,4.392 72.994,4.619C72.804,4.847 72.543,5.044 72.21,5.21C71.876,5.377 71.443,5.46 70.909,5.46C70.219,5.46 69.598,5.299 69.045,4.977C68.496,4.652 68.06,4.172 67.738,3.54C67.42,2.903 67.261,2.121 67.261,1.193C67.261,0.265 67.418,-0.53 67.733,-1.193C68.051,-1.856 68.486,-2.364 69.039,-2.716C69.592,-3.072 70.219,-3.25 70.92,-3.25C71.462,-3.25 71.899,-3.159 72.233,-2.977C72.566,-2.799 72.825,-2.591 73.011,-2.352C73.2,-2.114 73.346,-1.903 73.448,-1.722L73.573,-1.722L73.573,-3.136L75.238,-3.136L75.238,5.784C75.238,6.534 75.064,7.15 74.715,7.631C74.367,8.112 73.895,8.468 73.301,8.699C72.71,8.93 72.043,9.045 71.301,9.045ZM71.284,4.051C71.772,4.051 72.185,3.938 72.522,3.71C72.863,3.479 73.121,3.15 73.295,2.722C73.473,2.29 73.562,1.773 73.562,1.17C73.562,0.583 73.475,0.066 73.301,-0.381C73.126,-0.828 72.871,-1.176 72.534,-1.426C72.197,-1.68 71.78,-1.807 71.284,-1.807C70.772,-1.807 70.346,-1.674 70.005,-1.409C69.664,-1.148 69.407,-0.792 69.233,-0.341C69.062,0.11 68.977,0.614 68.977,1.17C68.977,1.742 69.064,2.244 69.238,2.676C69.412,3.108 69.67,3.445 70.011,3.687C70.356,3.93 70.78,4.051 71.284,4.051ZM81.102,5.767C80.242,5.767 79.502,5.583 78.88,5.216C78.263,4.845 77.786,4.324 77.449,3.653C77.115,2.979 76.949,2.189 76.949,1.284C76.949,0.39 77.115,-0.398 77.449,-1.08C77.786,-1.761 78.255,-2.294 78.858,-2.676C79.464,-3.059 80.172,-3.25 80.983,-3.25C81.475,-3.25 81.952,-3.169 82.414,-3.006C82.877,-2.843 83.291,-2.587 83.659,-2.239C84.026,-1.89 84.316,-1.437 84.528,-0.881C84.74,-0.328 84.846,0.345 84.846,1.136L84.846,1.739L77.909,1.739L77.909,0.466L83.182,0.466C83.182,0.019 83.091,-0.377 82.909,-0.722C82.727,-1.07 82.471,-1.345 82.142,-1.545C81.816,-1.746 81.433,-1.847 80.994,-1.847C80.517,-1.847 80.1,-1.729 79.744,-1.494C79.392,-1.263 79.119,-0.96 78.926,-0.585C78.736,-0.214 78.642,0.189 78.642,0.625L78.642,1.619C78.642,2.203 78.744,2.699 78.949,3.108C79.157,3.517 79.447,3.83 79.818,4.045C80.189,4.258 80.623,4.364 81.119,4.364C81.441,4.364 81.735,4.318 82,4.227C82.265,4.133 82.494,3.992 82.687,3.807C82.88,3.621 83.028,3.392 83.13,3.119L84.738,3.409C84.61,3.883 84.378,4.297 84.045,4.653C83.716,5.006 83.301,5.28 82.801,5.477C82.305,5.67 81.738,5.767 81.102,5.767Z" style="fill-opacity:0.8;fill-rule:nonzero;"/>
    </g>
    <g transform="matrix(1,0,0,1,730.5,186.154)">
        <path d="M-1.414,28.432C-2.195,29.213 -2.195,30.479 -1.414,31.26L11.314,43.988C12.095,44.769 13.361,44.769 14.142,43.988C14.923,43.207 14.923,41.941 14.142,41.16L2.828,29.846L14.142,18.532C14.923,17.751 14.923,16.485 14.142,15.704C13.361,14.923 12.095,14.923 11.314,15.704L-1.414,28.432ZM112.414,319.26C113.195,318.479 113.195,317.213 112.414,316.432L99.686,303.704C98.905,302.923 97.639,302.923 96.858,303.704C96.077,304.485 96.077,305.751 96.858,306.532L108.172,317.846L96.858,329.16C96.077,329.941 96.077,331.207 96.858,331.988C97.639,332.769 98.905,332.769 99.686,331.988L112.414,319.26ZM0,31.846L47.5,31.846L47.5,27.846L0,27.846L0,31.846ZM69.5,53.846L69.5,293.846L73.5,293.846L73.5,53.846L69.5,53.846ZM95.5,319.846L111,319.846L111,315.846L95.5,315.846L95.5,319.846ZM69.5,293.846C69.5,308.206 81.141,319.846 95.5,319.846L95.5,315.846C83.35,315.846 73.5,305.996 73.5,293.846L69.5,293.846ZM47.5,31.846C59.65,31.846 69.5,41.696 69.5,53.846L73.5,53.846C73.5,39.487 61.859,27.846 47.5,27.846L47.5,31.846Z" style="fill:rgb(179,179,179);fill-rule:nonzero;"/>
    </g>
    <g transform="matrix(1,0,0,1,130,179)">
        <path d="M1.5,3C1.5,0.514 3.514,-1.5 6,-1.5L104,-1.5C106.486,-1.5 108.5,0.514 108.5,3L108.5,11.5L22,11.5C17.864,11.5 14.5,14.854 14.5,18.999L14.5,42.287L4.522,39.028L4.483,39.016C2.713,38.491 1.5,36.865 1.5,35.019L1.5,3ZM125.848,58.448C125.796,58.501 125.744,58.551 125.693,58.599L125.469,58.024C125.624,58.138 125.753,58.283 125.848,58.448ZM22,14.5L122,14.5C124.486,14.5 126.5,16.515 126.5,18.999L126.5,53.453C126.5,54.922 125.78,56.254 125.029,57.124C124.947,57.22 124.868,57.305 124.794,57.381L112.26,49.272C105.15,44.673 97.653,43.364 90.314,45.352C83.019,47.328 76.058,52.512 69.848,60.561C63.501,68.787 56.594,73.552 49.705,75.012C42.861,76.462 35.798,74.703 28.967,69.403L18.531,61.306C18.388,61.195 18.109,60.839 17.869,60.103C17.642,59.406 17.5,58.516 17.5,57.543L17.5,18.999C17.5,16.514 19.518,14.5 22,14.5Z" style="fill:rgb(230,0,122);"/>
    </g>
    <g transform="matrix(1,0,0,1,162,209.795)">
        <path d="M4.084,6.205L4.084,-5.432L8.232,-5.432C9.137,-5.432 9.887,-5.267 10.482,-4.938C11.076,-4.608 11.521,-4.157 11.817,-3.585C12.112,-3.017 12.26,-2.377 12.26,-1.665C12.26,-0.949 12.11,-0.305 11.811,0.267C11.516,0.835 11.069,1.286 10.47,1.619C9.876,1.949 9.128,2.114 8.226,2.114L5.374,2.114L5.374,0.625L8.067,0.625C8.639,0.625 9.103,0.526 9.459,0.33C9.815,0.129 10.076,-0.144 10.243,-0.489C10.41,-0.833 10.493,-1.225 10.493,-1.665C10.493,-2.104 10.41,-2.494 10.243,-2.835C10.076,-3.176 9.813,-3.443 9.453,-3.636C9.097,-3.83 8.628,-3.926 8.044,-3.926L5.84,-3.926L5.84,6.205L4.084,6.205ZM16.468,6.398C15.915,6.398 15.415,6.295 14.968,6.091C14.521,5.883 14.166,5.581 13.905,5.187C13.648,4.794 13.519,4.311 13.519,3.739C13.519,3.246 13.613,2.841 13.803,2.523C13.992,2.205 14.248,1.953 14.57,1.767C14.892,1.581 15.252,1.441 15.649,1.347C16.047,1.252 16.452,1.18 16.865,1.131C17.388,1.07 17.812,1.021 18.138,0.983C18.464,0.941 18.701,0.875 18.848,0.784C18.996,0.693 19.07,0.545 19.07,0.341L19.07,0.301C19.07,-0.195 18.93,-0.58 18.649,-0.852C18.373,-1.125 17.96,-1.261 17.411,-1.261C16.839,-1.261 16.388,-1.135 16.059,-0.881C15.733,-0.631 15.507,-0.352 15.382,-0.045L13.786,-0.409C13.975,-0.939 14.252,-1.367 14.615,-1.693C14.983,-2.023 15.405,-2.261 15.882,-2.409C16.36,-2.561 16.862,-2.636 17.388,-2.636C17.737,-2.636 18.106,-2.595 18.496,-2.511C18.89,-2.432 19.257,-2.284 19.598,-2.068C19.943,-1.852 20.225,-1.544 20.445,-1.142C20.665,-0.744 20.774,-0.227 20.774,0.409L20.774,6.205L19.115,6.205L19.115,5.011L19.047,5.011C18.937,5.231 18.773,5.447 18.553,5.659C18.333,5.871 18.051,6.047 17.706,6.187C17.362,6.328 16.949,6.398 16.468,6.398ZM16.837,5.034C17.307,5.034 17.708,4.941 18.041,4.756C18.379,4.57 18.634,4.328 18.809,4.028C18.987,3.725 19.076,3.401 19.076,3.057L19.076,1.932C19.015,1.992 18.898,2.049 18.723,2.102C18.553,2.151 18.358,2.195 18.138,2.233C17.918,2.267 17.704,2.299 17.496,2.33C17.288,2.356 17.113,2.379 16.973,2.398C16.644,2.439 16.343,2.509 16.07,2.608C15.801,2.706 15.585,2.848 15.422,3.034C15.263,3.216 15.184,3.458 15.184,3.761C15.184,4.182 15.339,4.5 15.649,4.716C15.96,4.928 16.356,5.034 16.837,5.034ZM22.861,6.205L22.861,-2.523L24.503,-2.523L24.503,-1.136L24.594,-1.136C24.753,-1.606 25.034,-1.975 25.435,-2.244C25.84,-2.517 26.299,-2.653 26.81,-2.653C26.916,-2.653 27.041,-2.65 27.185,-2.642C27.333,-2.635 27.448,-2.625 27.532,-2.614L27.532,-0.989C27.464,-1.008 27.342,-1.028 27.168,-1.051C26.994,-1.078 26.82,-1.091 26.645,-1.091C26.244,-1.091 25.886,-1.006 25.571,-0.835C25.261,-0.669 25.015,-0.436 24.833,-0.136C24.651,0.159 24.56,0.496 24.56,0.875L24.56,6.205L22.861,6.205ZM31.288,6.398C30.734,6.398 30.234,6.295 29.788,6.091C29.341,5.883 28.986,5.581 28.725,5.187C28.467,4.794 28.339,4.311 28.339,3.739C28.339,3.246 28.433,2.841 28.623,2.523C28.812,2.205 29.068,1.953 29.39,1.767C29.712,1.581 30.072,1.441 30.469,1.347C30.867,1.252 31.272,1.18 31.685,1.131C32.208,1.07 32.632,1.021 32.958,0.983C33.284,0.941 33.52,0.875 33.668,0.784C33.816,0.693 33.89,0.545 33.89,0.341L33.89,0.301C33.89,-0.195 33.75,-0.58 33.469,-0.852C33.193,-1.125 32.78,-1.261 32.231,-1.261C31.659,-1.261 31.208,-1.135 30.878,-0.881C30.553,-0.631 30.327,-0.352 30.202,-0.045L28.606,-0.409C28.795,-0.939 29.072,-1.367 29.435,-1.693C29.803,-2.023 30.225,-2.261 30.702,-2.409C31.18,-2.561 31.681,-2.636 32.208,-2.636C32.556,-2.636 32.926,-2.595 33.316,-2.511C33.71,-2.432 34.077,-2.284 34.418,-2.068C34.763,-1.852 35.045,-1.544 35.265,-1.142C35.484,-0.744 35.594,-0.227 35.594,0.409L35.594,6.205L33.935,6.205L33.935,5.011L33.867,5.011C33.757,5.231 33.592,5.447 33.373,5.659C33.153,5.871 32.871,6.047 32.526,6.187C32.181,6.328 31.769,6.398 31.288,6.398ZM31.657,5.034C32.127,5.034 32.528,4.941 32.861,4.756C33.198,4.57 33.454,4.328 33.628,4.028C33.806,3.725 33.895,3.401 33.895,3.057L33.895,1.932C33.835,1.992 33.717,2.049 33.543,2.102C33.373,2.151 33.178,2.195 32.958,2.233C32.738,2.267 32.524,2.299 32.316,2.33C32.108,2.356 31.933,2.379 31.793,2.398C31.464,2.439 31.163,2.509 30.89,2.608C30.621,2.706 30.405,2.848 30.242,3.034C30.083,3.216 30.003,3.458 30.003,3.761C30.003,4.182 30.159,4.5 30.469,4.716C30.78,4.928 31.176,5.034 31.657,5.034ZM41.357,6.381C40.513,6.381 39.785,6.189 39.175,5.807C38.569,5.42 38.103,4.888 37.778,4.21C37.452,3.532 37.289,2.756 37.289,1.881C37.289,0.994 37.456,0.212 37.789,-0.466C38.122,-1.148 38.592,-1.68 39.198,-2.063C39.804,-2.445 40.518,-2.636 41.34,-2.636C42.003,-2.636 42.594,-2.513 43.113,-2.267C43.632,-2.025 44.05,-1.684 44.369,-1.244C44.691,-0.805 44.882,-0.292 44.942,0.295L43.289,0.295C43.198,-0.114 42.99,-0.466 42.664,-0.761C42.342,-1.057 41.91,-1.205 41.369,-1.205C40.895,-1.205 40.48,-1.08 40.124,-0.83C39.772,-0.583 39.497,-0.231 39.3,0.227C39.103,0.682 39.005,1.22 39.005,1.841C39.005,2.477 39.102,3.026 39.295,3.489C39.488,3.951 39.761,4.309 40.113,4.562C40.469,4.816 40.888,4.943 41.369,4.943C41.691,4.943 41.982,4.884 42.244,4.767C42.509,4.646 42.73,4.473 42.908,4.25C43.09,4.026 43.217,3.758 43.289,3.443L44.942,3.443C44.882,4.008 44.698,4.511 44.391,4.955C44.085,5.398 43.674,5.746 43.158,6C42.647,6.254 42.047,6.381 41.357,6.381ZM48.282,1.023L48.282,6.205L46.583,6.205L46.583,-5.432L48.259,-5.432L48.259,-1.102L48.367,-1.102C48.572,-1.572 48.884,-1.945 49.305,-2.222C49.725,-2.498 50.275,-2.636 50.953,-2.636C51.551,-2.636 52.074,-2.513 52.521,-2.267C52.971,-2.021 53.32,-1.653 53.566,-1.165C53.816,-0.68 53.941,-0.074 53.941,0.653L53.941,6.205L52.242,6.205L52.242,0.858C52.242,0.218 52.078,-0.278 51.748,-0.631C51.418,-0.987 50.96,-1.165 50.373,-1.165C49.971,-1.165 49.612,-1.08 49.293,-0.909C48.979,-0.739 48.731,-0.489 48.549,-0.159C48.371,0.167 48.282,0.561 48.282,1.023ZM58.572,6.398C58.019,6.398 57.519,6.295 57.072,6.091C56.625,5.883 56.271,5.581 56.01,5.187C55.752,4.794 55.623,4.311 55.623,3.739C55.623,3.246 55.718,2.841 55.907,2.523C56.097,2.205 56.352,1.953 56.674,1.767C56.996,1.581 57.356,1.441 57.754,1.347C58.152,1.252 58.557,1.18 58.97,1.131C59.492,1.07 59.917,1.021 60.242,0.983C60.568,0.941 60.805,0.875 60.953,0.784C61.1,0.693 61.174,0.545 61.174,0.341L61.174,0.301C61.174,-0.195 61.034,-0.58 60.754,-0.852C60.477,-1.125 60.064,-1.261 59.515,-1.261C58.943,-1.261 58.492,-1.135 58.163,-0.881C57.837,-0.631 57.612,-0.352 57.487,-0.045L55.89,-0.409C56.08,-0.939 56.356,-1.367 56.72,-1.693C57.087,-2.023 57.51,-2.261 57.987,-2.409C58.464,-2.561 58.966,-2.636 59.492,-2.636C59.841,-2.636 60.21,-2.595 60.6,-2.511C60.994,-2.432 61.362,-2.284 61.703,-2.068C62.047,-1.852 62.33,-1.544 62.549,-1.142C62.769,-0.744 62.879,-0.227 62.879,0.409L62.879,6.205L61.22,6.205L61.22,5.011L61.152,5.011C61.042,5.231 60.877,5.447 60.657,5.659C60.438,5.871 60.155,6.047 59.811,6.187C59.466,6.328 59.053,6.398 58.572,6.398ZM58.941,5.034C59.411,5.034 59.813,4.941 60.146,4.756C60.483,4.57 60.739,4.328 60.913,4.028C61.091,3.725 61.18,3.401 61.18,3.057L61.18,1.932C61.119,1.992 61.002,2.049 60.828,2.102C60.657,2.151 60.462,2.195 60.242,2.233C60.023,2.267 59.809,2.299 59.6,2.33C59.392,2.356 59.218,2.379 59.078,2.398C58.748,2.439 58.447,2.509 58.174,2.608C57.905,2.706 57.689,2.848 57.527,3.034C57.367,3.216 57.288,3.458 57.288,3.761C57.288,4.182 57.443,4.5 57.754,4.716C58.064,4.928 58.46,5.034 58.941,5.034ZM64.966,6.205L64.966,-2.523L66.664,-2.523L66.664,6.205L64.966,6.205ZM65.824,-3.869C65.528,-3.869 65.274,-3.968 65.062,-4.165C64.854,-4.366 64.75,-4.604 64.75,-4.881C64.75,-5.161 64.854,-5.4 65.062,-5.597C65.274,-5.797 65.528,-5.898 65.824,-5.898C66.119,-5.898 66.371,-5.797 66.579,-5.597C66.791,-5.4 66.897,-5.161 66.897,-4.881C66.897,-4.604 66.791,-4.366 66.579,-4.165C66.371,-3.968 66.119,-3.869 65.824,-3.869ZM70.473,1.023L70.473,6.205L68.774,6.205L68.774,-2.523L70.405,-2.523L70.405,-1.102L70.513,-1.102C70.713,-1.564 71.028,-1.936 71.456,-2.216C71.888,-2.496 72.431,-2.636 73.086,-2.636C73.681,-2.636 74.202,-2.511 74.649,-2.261C75.096,-2.015 75.443,-1.648 75.689,-1.159C75.935,-0.67 76.058,-0.066 76.058,0.653L76.058,6.205L74.359,6.205L74.359,0.858C74.359,0.225 74.194,-0.269 73.865,-0.625C73.535,-0.985 73.083,-1.165 72.507,-1.165C72.113,-1.165 71.763,-1.08 71.456,-0.909C71.153,-0.739 70.912,-0.489 70.734,-0.159C70.56,0.167 70.473,0.561 70.473,1.023Z" style="fill:white;fill-rule:nonzero;"/>
    </g>
    <g transform="matrix(1,0,0,1,266.5,186.154)">
        <path d="M111.5,31.846C112.605,31.846 113.5,30.951 113.5,29.846C113.5,28.742 112.605,27.846 111.5,27.846L111.5,31.846ZM-1.414,28.432C-2.195,29.213 -2.195,30.479 -1.414,31.26L11.314,43.988C12.095,44.769 13.361,44.769 14.142,43.988C14.923,43.207 14.923,41.941 14.142,41.16L2.828,29.846L14.142,18.532C14.923,17.751 14.923,16.485 14.142,15.704C13.361,14.923 12.095,14.923 11.314,15.704L-1.414,28.432ZM111.5,27.846L0,27.846L0,31.846L111.5,31.846L111.5,27.846Z" style="fill:rgb(179,179,179);fill-rule:nonzero;"/>
    </g>
    <g transform="matrix(0.828048,0,0,0.739077,35.8102,136.022)">
        <g id="Layer1">
            <path d="M268.317,487.604L268.317,508.335C268.317,532.518 250.793,552.151 229.209,552.151L152.891,552.151C131.306,552.151 113.782,532.518 113.782,508.335L113.782,487.604C113.782,463.421 131.306,443.787 152.891,443.787L229.209,443.787C250.793,443.787 268.317,463.421 268.317,487.604Z" style="fill:rgb(235,235,235);"/>
        </g>
    </g>
    <g transform="matrix(1,0,0,1,130,460)">
        <path d="M24.816,81.135C23.743,80.871 22.66,81.527 22.397,82.6C22.133,83.673 22.789,84.756 23.862,85.019L24.816,81.135ZM14.407,81.1C15.352,81.672 16.582,81.37 17.154,80.426C17.726,79.481 17.424,78.251 16.48,77.679L14.407,81.1ZM6.321,67.52C5.749,66.576 4.519,66.274 3.574,66.846C2.63,67.418 2.328,68.648 2.9,69.593L6.321,67.52ZM-1.019,60.138C-0.756,61.211 0.327,61.867 1.4,61.603C2.473,61.34 3.129,60.257 2.865,59.184L-1.019,60.138ZM2,47.077C2,45.972 1.105,45.077 0,45.077C-1.105,45.077 -2,45.972 -2,47.077L2,47.077ZM-2,40.923C-2,42.028 -1.105,42.923 0,42.923C1.105,42.923 2,42.028 2,40.923L-2,40.923ZM2.865,28.816C3.129,27.743 2.473,26.66 1.4,26.397C0.327,26.133 -0.756,26.789 -1.019,27.862L2.865,28.816ZM2.9,18.407C2.328,19.352 2.63,20.582 3.574,21.154C4.519,21.726 5.749,21.424 6.321,20.48L2.9,18.407ZM16.48,10.321C17.424,9.749 17.726,8.519 17.154,7.574C16.582,6.63 15.352,6.328 14.407,6.9L16.48,10.321ZM23.862,2.981C22.789,3.244 22.133,4.327 22.397,5.4C22.66,6.473 23.743,7.129 24.816,6.865L23.862,2.981ZM41.846,6C42.951,6 43.846,5.105 43.846,4C43.846,2.895 42.951,2 41.846,2L41.846,6ZM54.154,2C53.049,2 52.154,2.895 52.154,4C52.154,5.105 53.049,6 54.154,6L54.154,2ZM73.846,6C74.951,6 75.846,5.105 75.846,4C75.846,2.895 74.951,2 73.846,2L73.846,6ZM86.154,2C85.049,2 84.154,2.895 84.154,4C84.154,5.105 85.049,6 86.154,6L86.154,2ZM103.184,6.865C104.257,7.129 105.34,6.473 105.603,5.4C105.867,4.327 105.211,3.244 104.138,2.981L103.184,6.865ZM113.593,6.9C112.648,6.328 111.418,6.63 110.846,7.574C110.274,8.519 110.576,9.749 111.52,10.321L113.593,6.9ZM121.679,20.48C122.251,21.424 123.481,21.726 124.426,21.154C125.37,20.582 125.672,19.352 125.1,18.407L121.679,20.48ZM129.019,27.862C128.756,26.789 127.673,26.133 126.6,26.397C125.527,26.66 124.871,27.743 125.135,28.816L129.019,27.862ZM126,40.923C126,42.028 126.895,42.923 128,42.923C129.105,42.923 130,42.028 130,40.923L126,40.923ZM130,47.077C130,45.972 129.105,45.077 128,45.077C126.895,45.077 126,45.972 126,47.077L130,47.077ZM125.135,59.184C124.871,60.257 125.527,61.34 126.6,61.603C127.673,61.867 128.756,61.211 129.019,60.138L125.135,59.184ZM125.1,69.593C125.672,68.648 125.37,67.418 124.426,66.846C123.481,66.274 122.251,66.576 121.679,67.52L125.1,69.593ZM111.52,77.679C110.576,78.251 110.274,79.481 110.846,80.426C111.418,81.37 112.648,81.672 113.593,81.1L111.52,77.679ZM104.138,85.019C105.211,84.756 105.867,83.673 105.603,82.6C105.34,81.527 104.257,80.871 103.184,81.135L104.138,85.019ZM86.154,82C85.049,82 84.154,82.895 84.154,84C84.154,85.105 85.049,86 86.154,86L86.154,82ZM73.846,86C74.951,86 75.846,85.105 75.846,84C75.846,82.895 74.951,82 73.846,82L73.846,86ZM54.154,82C53.049,82 52.154,82.895 52.154,84C52.154,85.105 53.049,86 54.154,86L54.154,82ZM41.846,86C42.951,86 43.846,85.105 43.846,84C43.846,82.895 42.951,82 41.846,82L41.846,86ZM32,82C29.521,82 27.116,81.7 24.816,81.135L23.862,85.019C26.471,85.66 29.197,86 32,86L32,82ZM16.48,77.679C12.329,75.164 8.836,71.671 6.321,67.52L2.9,69.593C5.749,74.295 9.705,78.251 14.407,81.1L16.48,77.679ZM2.865,59.184C2.3,56.884 2,54.479 2,52L-2,52C-2,54.803 -1.66,57.529 -1.019,60.138L2.865,59.184ZM2,52L2,47.077L-2,47.077L-2,52L2,52ZM2,40.923L2,36L-2,36L-2,40.923L2,40.923ZM2,36C2,33.521 2.3,31.116 2.865,28.816L-1.019,27.862C-1.66,30.471 -2,33.197 -2,36L2,36ZM6.321,20.48C8.836,16.329 12.329,12.836 16.48,10.321L14.407,6.9C9.705,9.749 5.749,13.705 2.9,18.407L6.321,20.48ZM24.816,6.865C27.116,6.3 29.521,6 32,6L32,2C29.197,2 26.471,2.34 23.862,2.981L24.816,6.865ZM32,6L41.846,6L41.846,2L32,2L32,6ZM54.154,6L73.846,6L73.846,2L54.154,2L54.154,6ZM86.154,6L96,6L96,2L86.154,2L86.154,6ZM96,6C98.479,6 100.884,6.3 103.184,6.865L104.138,2.981C101.529,2.34 98.803,2 96,2L96,6ZM111.52,10.321C115.671,12.836 119.164,16.329 121.679,20.48L125.1,18.407C122.251,13.705 118.295,9.749 113.593,6.9L111.52,10.321ZM125.135,28.816C125.7,31.116 126,33.521 126,36L130,36C130,33.197 129.66,30.471 129.019,27.862L125.135,28.816ZM126,36L126,40.923L130,40.923L130,36L126,36ZM126,47.077L126,52L130,52L130,47.077L126,47.077ZM126,52C126,54.479 125.7,56.884 125.135,59.184L129.019,60.138C129.66,57.529 130,54.803 130,52L126,52ZM121.679,67.52C119.164,71.671 115.671,75.164 111.52,77.679L113.593,81.1C118.295,78.251 122.251,74.295 125.1,69.593L121.679,67.52ZM103.184,81.135C100.884,81.7 98.479,82 96,82L96,86C98.803,86 101.529,85.66 104.138,85.019L103.184,81.135ZM96,82L86.154,82L86.154,86L96,86L96,82ZM73.846,82L54.154,82L54.154,86L73.846,86L73.846,82ZM41.846,82L32,82L32,86L41.846,86L41.846,82Z" style="fill:rgb(151,71,255);fill-rule:nonzero;"/>
    </g>
    <g transform="matrix(1,0,0,1,146,503.796)">
        <path d="M32.932,-1.648L31.159,-1.648C31.091,-2.027 30.964,-2.36 30.779,-2.648C30.593,-2.936 30.366,-3.18 30.097,-3.381C29.828,-3.582 29.527,-3.733 29.193,-3.835C28.864,-3.938 28.514,-3.989 28.142,-3.989C27.472,-3.989 26.872,-3.82 26.341,-3.483C25.815,-3.146 25.398,-2.652 25.091,-2C24.788,-1.349 24.637,-0.553 24.637,0.386C24.637,1.333 24.788,2.132 25.091,2.784C25.398,3.436 25.817,3.928 26.347,4.261C26.877,4.595 27.474,4.761 28.137,4.761C28.504,4.761 28.853,4.712 29.182,4.614C29.515,4.511 29.817,4.362 30.086,4.165C30.354,3.968 30.582,3.727 30.767,3.443C30.957,3.155 31.087,2.826 31.159,2.454L32.932,2.46C32.837,3.032 32.654,3.559 32.381,4.04C32.112,4.517 31.765,4.93 31.341,5.278C30.921,5.623 30.44,5.89 29.898,6.079C29.356,6.269 28.765,6.364 28.125,6.364C27.118,6.364 26.22,6.125 25.432,5.648C24.644,5.167 24.023,4.479 23.568,3.585C23.118,2.691 22.892,1.625 22.892,0.386C22.892,-0.856 23.12,-1.922 23.574,-2.813C24.029,-3.707 24.65,-4.392 25.438,-4.869C26.226,-5.35 27.122,-5.591 28.125,-5.591C28.743,-5.591 29.318,-5.502 29.853,-5.324C30.39,-5.15 30.873,-4.892 31.301,-4.551C31.729,-4.214 32.084,-3.801 32.364,-3.313C32.644,-2.828 32.834,-2.273 32.932,-1.648ZM36.419,-5.432L36.419,6.204L34.721,6.204L34.721,-5.432L36.419,-5.432ZM38.529,6.204L38.529,-2.523L40.228,-2.523L40.228,6.204L38.529,6.204ZM39.387,-3.869C39.091,-3.869 38.838,-3.968 38.626,-4.165C38.417,-4.366 38.313,-4.604 38.313,-4.881C38.313,-5.161 38.417,-5.4 38.626,-5.597C38.838,-5.797 39.091,-5.898 39.387,-5.898C39.682,-5.898 39.934,-5.797 40.143,-5.597C40.355,-5.4 40.461,-5.161 40.461,-4.881C40.461,-4.604 40.355,-4.366 40.143,-4.165C39.934,-3.968 39.682,-3.869 39.387,-3.869ZM46.099,6.381C45.239,6.381 44.498,6.197 43.877,5.829C43.26,5.458 42.782,4.937 42.445,4.267C42.112,3.593 41.945,2.803 41.945,1.898C41.945,1.004 42.112,0.216 42.445,-0.466C42.782,-1.148 43.252,-1.68 43.854,-2.063C44.46,-2.445 45.169,-2.636 45.979,-2.636C46.472,-2.636 46.949,-2.555 47.411,-2.392C47.873,-2.229 48.288,-1.974 48.656,-1.625C49.023,-1.277 49.313,-0.824 49.525,-0.267C49.737,0.286 49.843,0.958 49.843,1.75L49.843,2.352L42.906,2.352L42.906,1.079L48.178,1.079C48.178,0.632 48.087,0.237 47.906,-0.108C47.724,-0.457 47.468,-0.731 47.138,-0.932C46.813,-1.133 46.43,-1.233 45.991,-1.233C45.513,-1.233 45.097,-1.116 44.741,-0.881C44.388,-0.65 44.116,-0.347 43.923,0.028C43.733,0.4 43.638,0.803 43.638,1.239L43.638,2.233C43.638,2.816 43.741,3.312 43.945,3.722C44.154,4.131 44.443,4.443 44.815,4.659C45.186,4.871 45.62,4.977 46.116,4.977C46.438,4.977 46.731,4.932 46.996,4.841C47.262,4.746 47.491,4.606 47.684,4.42C47.877,4.235 48.025,4.006 48.127,3.733L49.735,4.023C49.606,4.496 49.375,4.911 49.042,5.267C48.712,5.619 48.298,5.894 47.798,6.091C47.301,6.284 46.735,6.381 46.099,6.381ZM53.251,1.023L53.251,6.204L51.552,6.204L51.552,-2.523L53.183,-2.523L53.183,-1.102L53.291,-1.102C53.491,-1.564 53.806,-1.936 54.234,-2.216C54.666,-2.496 55.209,-2.636 55.864,-2.636C56.459,-2.636 56.98,-2.511 57.427,-2.261C57.874,-2.015 58.221,-1.648 58.467,-1.159C58.713,-0.671 58.836,-0.066 58.836,0.653L58.836,6.204L57.137,6.204L57.137,0.858C57.137,0.225 56.972,-0.269 56.643,-0.625C56.313,-0.985 55.861,-1.165 55.285,-1.165C54.891,-1.165 54.541,-1.08 54.234,-0.909C53.931,-0.739 53.69,-0.489 53.512,-0.159C53.338,0.167 53.251,0.561 53.251,1.023ZM65.012,-2.523L65.012,-1.159L60.245,-1.159L60.245,-2.523L65.012,-2.523ZM61.524,-4.614L63.223,-4.614L63.223,3.642C63.223,3.972 63.272,4.22 63.37,4.386C63.469,4.549 63.596,4.661 63.751,4.722C63.91,4.778 64.082,4.807 64.268,4.807C64.404,4.807 64.524,4.797 64.626,4.778C64.728,4.759 64.808,4.744 64.865,4.733L65.171,6.136C65.073,6.174 64.933,6.212 64.751,6.25C64.569,6.292 64.342,6.314 64.069,6.318C63.622,6.326 63.206,6.246 62.819,6.079C62.433,5.913 62.12,5.655 61.882,5.307C61.643,4.958 61.524,4.521 61.524,3.994L61.524,-4.614ZM73.115,-0.392L71.575,-0.119C71.511,-0.316 71.408,-0.504 71.268,-0.682C71.132,-0.86 70.946,-1.006 70.711,-1.119C70.477,-1.233 70.183,-1.29 69.831,-1.29C69.35,-1.29 68.948,-1.182 68.626,-0.966C68.304,-0.754 68.143,-0.479 68.143,-0.142C68.143,0.15 68.251,0.384 68.467,0.562C68.683,0.74 69.031,0.886 69.512,1L70.899,1.318C71.702,1.504 72.3,1.79 72.694,2.176C73.088,2.562 73.285,3.064 73.285,3.682C73.285,4.204 73.134,4.67 72.831,5.079C72.531,5.485 72.113,5.803 71.575,6.034C71.041,6.265 70.422,6.381 69.717,6.381C68.74,6.381 67.942,6.172 67.325,5.756C66.708,5.335 66.329,4.739 66.189,3.966L67.831,3.716C67.933,4.144 68.143,4.468 68.461,4.687C68.78,4.903 69.194,5.011 69.706,5.011C70.262,5.011 70.708,4.896 71.041,4.665C71.374,4.43 71.541,4.144 71.541,3.807C71.541,3.534 71.439,3.305 71.234,3.119C71.033,2.934 70.725,2.793 70.308,2.699L68.831,2.375C68.016,2.189 67.414,1.894 67.024,1.489C66.637,1.083 66.444,0.57 66.444,-0.051C66.444,-0.566 66.588,-1.017 66.876,-1.403C67.164,-1.79 67.562,-2.091 68.069,-2.307C68.577,-2.527 69.158,-2.636 69.814,-2.636C70.757,-2.636 71.499,-2.432 72.041,-2.023C72.583,-1.618 72.941,-1.074 73.115,-0.392Z" style="fill-opacity:0.8;fill-rule:nonzero;"/>
    </g>
    <g transform="matrix(1,0,0,1,266,474.154)">
        <path d="M0,27.846C-1.105,27.846 -2,28.742 -2,29.846C-2,30.951 -1.105,31.846 0,31.846L0,27.846ZM112.914,31.26C113.695,30.479 113.695,29.213 112.914,28.432L100.186,15.704C99.405,14.923 98.139,14.923 97.358,15.704C96.577,16.485 96.577,17.751 97.358,18.532L108.672,29.846L97.358,41.16C96.577,41.941 96.577,43.207 97.358,43.988C98.139,44.769 99.405,44.769 100.186,43.988L112.914,31.26ZM0,31.846L111.5,31.846L111.5,27.846L0,27.846L0,31.846Z" style="fill:rgb(179,179,179);fill-rule:nonzero;"/>
    </g>
    <g transform="matrix(1,0,0,1,338,94)">
        <path d="M0,8C0,3.582 3.582,0 8,0L154.467,0C158.885,0 162.467,3.582 162.467,8L162.467,20C162.467,24.418 158.885,28 154.467,28L8,28C3.582,28 0,24.418 0,20L0,8Z" style="fill:rgb(228,204,255);fill-rule:nonzero;"/>
    </g>
    <g transform="matrix(1,0,0,1,338,94)">
        <g>
            <clipPath id="_clip2">
                <path d="M0,8C0,3.582 3.582,0 8,0L154.467,0C158.885,0 162.467,3.582 162.467,8L162.467,20C162.467,24.418 158.885,28 154.467,28L8,28C3.582,28 0,24.418 0,20L0,8Z"/>
            </clipPath>
            <g clip-path="url(#_clip2)">
                <path d="M8,1L154.467,1L154.467,-1L8,-1L8,1ZM161.467,8L161.467,20L163.467,20L163.467,8L161.467,8ZM154.467,27L8,27L8,29L154.467,29L154.467,27ZM1,20L1,8L-1,8L-1,20L1,20ZM8,27C4.134,27 1,23.866 1,20L-1,20C-1,24.971 3.029,29 8,29L8,27ZM161.467,20C161.467,23.866 158.333,27 154.467,27L154.467,29C159.437,29 163.467,24.971 163.467,20L161.467,20ZM154.467,1C158.333,1 161.467,4.134 161.467,8L163.467,8C163.467,3.029 159.437,-1 154.467,-1L154.467,1ZM8,-1C3.029,-1 -1,3.029 -1,8L1,8C1,4.134 4.134,1 8,1L8,-1Z" style="fill-opacity:0.15;fill-rule:nonzero;"/>
            </g>
        </g>
    </g>
    <g transform="matrix(1,0,0,1,347,106.77)">
        <path d="M8.578,-2.422C8.51,-3.027 8.229,-3.496 7.734,-3.828C7.24,-4.165 6.618,-4.333 5.868,-4.333C5.331,-4.333 4.866,-4.248 4.474,-4.077C4.082,-3.911 3.778,-3.681 3.56,-3.387C3.347,-3.097 3.241,-2.767 3.241,-2.396C3.241,-2.085 3.313,-1.817 3.458,-1.591C3.607,-1.365 3.801,-1.175 4.04,-1.022C4.283,-0.873 4.543,-0.747 4.82,-0.645C5.097,-0.547 5.363,-0.466 5.619,-0.402L6.897,-0.069C7.315,0.033 7.743,0.171 8.182,0.346C8.621,0.521 9.028,0.751 9.403,1.036C9.778,1.322 10.08,1.676 10.31,2.097C10.545,2.519 10.662,3.024 10.662,3.612C10.662,4.354 10.47,5.012 10.087,5.588C9.707,6.163 9.156,6.617 8.431,6.949C7.711,7.281 6.839,7.448 5.817,7.448C4.837,7.448 3.989,7.292 3.273,6.981C2.557,6.67 1.996,6.229 1.592,5.658C1.187,5.083 0.963,4.401 0.92,3.612L2.902,3.612C2.94,4.085 3.094,4.48 3.362,4.795C3.635,5.106 3.982,5.338 4.404,5.492C4.83,5.641 5.297,5.715 5.804,5.715C6.362,5.715 6.859,5.628 7.293,5.453C7.732,5.274 8.077,5.027 8.329,4.712C8.58,4.392 8.706,4.019 8.706,3.593C8.706,3.205 8.595,2.888 8.374,2.641C8.156,2.394 7.86,2.189 7.485,2.027C7.114,1.865 6.695,1.722 6.226,1.599L4.679,1.177C3.631,0.892 2.8,0.472 2.186,-0.082C1.577,-0.636 1.272,-1.369 1.272,-2.281C1.272,-3.035 1.477,-3.694 1.886,-4.256C2.295,-4.819 2.849,-5.256 3.548,-5.567C4.246,-5.882 5.035,-6.04 5.913,-6.04C6.799,-6.04 7.581,-5.884 8.259,-5.573C8.94,-5.262 9.477,-4.834 9.869,-4.288C10.261,-3.747 10.466,-3.125 10.483,-2.422L8.578,-2.422ZM17.254,-2.588L17.254,-1.054L11.891,-1.054L11.891,-2.588L17.254,-2.588ZM13.329,-4.94L15.24,-4.94L15.24,4.347C15.24,4.718 15.296,4.997 15.407,5.185C15.517,5.368 15.66,5.494 15.835,5.562C16.014,5.626 16.208,5.658 16.417,5.658C16.57,5.658 16.704,5.647 16.819,5.626C16.934,5.605 17.024,5.588 17.088,5.575L17.433,7.154C17.322,7.196 17.164,7.239 16.96,7.281C16.755,7.328 16.5,7.354 16.193,7.358C15.69,7.367 15.221,7.277 14.787,7.09C14.352,6.902 14,6.612 13.732,6.22C13.463,5.828 13.329,5.336 13.329,4.744L13.329,-4.94ZM23.2,7.428C22.28,7.428 21.477,7.217 20.79,6.796C20.104,6.374 19.572,5.784 19.192,5.025C18.813,4.267 18.624,3.38 18.624,2.366C18.624,1.347 18.813,0.457 19.192,-0.306C19.572,-1.069 20.104,-1.661 20.79,-2.083C21.477,-2.505 22.28,-2.716 23.2,-2.716C24.121,-2.716 24.924,-2.505 25.61,-2.083C26.296,-1.661 26.829,-1.069 27.208,-0.306C27.587,0.457 27.777,1.347 27.777,2.366C27.777,3.38 27.587,4.267 27.208,5.025C26.829,5.784 26.296,6.374 25.61,6.796C24.924,7.217 24.121,7.428 23.2,7.428ZM23.207,5.824C23.803,5.824 24.298,5.666 24.69,5.351C25.082,5.036 25.371,4.616 25.559,4.092C25.751,3.568 25.847,2.99 25.847,2.36C25.847,1.733 25.751,1.158 25.559,0.634C25.371,0.105 25.082,-0.319 24.69,-0.638C24.298,-0.958 23.803,-1.118 23.207,-1.118C22.606,-1.118 22.107,-0.958 21.711,-0.638C21.319,-0.319 21.027,0.105 20.835,0.634C20.648,1.158 20.554,1.733 20.554,2.36C20.554,2.99 20.648,3.568 20.835,4.092C21.027,4.616 21.319,5.036 21.711,5.351C22.107,5.666 22.606,5.824 23.207,5.824ZM29.712,7.23L29.712,-2.588L31.56,-2.588L31.56,-1.028L31.662,-1.028C31.841,-1.557 32.156,-1.972 32.608,-2.275C33.064,-2.582 33.579,-2.735 34.155,-2.735C34.274,-2.735 34.415,-2.731 34.577,-2.722C34.743,-2.714 34.873,-2.703 34.967,-2.69L34.967,-0.862C34.89,-0.883 34.753,-0.907 34.557,-0.932C34.361,-0.962 34.165,-0.977 33.969,-0.977C33.518,-0.977 33.115,-0.881 32.761,-0.689C32.412,-0.502 32.135,-0.24 31.93,0.097C31.726,0.429 31.624,0.808 31.624,1.235L31.624,7.23L29.712,7.23ZM39.192,7.448C38.57,7.448 38.007,7.333 37.504,7.102C37.001,6.868 36.603,6.529 36.309,6.086C36.019,5.643 35.874,5.1 35.874,4.456C35.874,3.902 35.981,3.446 36.194,3.088C36.407,2.73 36.695,2.447 37.057,2.238C37.419,2.029 37.824,1.872 38.271,1.765C38.719,1.659 39.175,1.578 39.639,1.522C40.227,1.454 40.705,1.399 41.071,1.356C41.438,1.309 41.704,1.235 41.87,1.132C42.036,1.03 42.119,0.864 42.119,0.634L42.119,0.589C42.119,0.031 41.962,-0.402 41.646,-0.709C41.335,-1.015 40.871,-1.169 40.253,-1.169C39.609,-1.169 39.102,-1.026 38.732,-0.741C38.365,-0.459 38.112,-0.146 37.971,0.199L36.175,-0.21C36.388,-0.807 36.699,-1.288 37.108,-1.655C37.521,-2.025 37.997,-2.294 38.533,-2.46C39.07,-2.631 39.635,-2.716 40.227,-2.716C40.619,-2.716 41.035,-2.669 41.474,-2.575C41.917,-2.486 42.33,-2.319 42.714,-2.077C43.102,-1.834 43.419,-1.486 43.666,-1.035C43.913,-0.587 44.037,-0.006 44.037,0.71L44.037,7.23L42.171,7.23L42.171,5.888L42.094,5.888C41.97,6.135 41.785,6.378 41.538,6.617C41.291,6.855 40.973,7.053 40.585,7.211C40.198,7.369 39.733,7.448 39.192,7.448ZM39.607,5.914C40.136,5.914 40.587,5.809 40.962,5.6C41.342,5.392 41.629,5.119 41.825,4.782C42.026,4.441 42.126,4.077 42.126,3.689L42.126,2.423C42.058,2.492 41.926,2.556 41.729,2.615C41.538,2.671 41.318,2.72 41.071,2.762C40.824,2.801 40.583,2.837 40.349,2.871C40.114,2.901 39.918,2.926 39.761,2.948C39.39,2.994 39.051,3.073 38.744,3.184C38.442,3.295 38.199,3.455 38.016,3.664C37.837,3.868 37.747,4.141 37.747,4.482C37.747,4.955 37.922,5.313 38.271,5.556C38.621,5.794 39.066,5.914 39.607,5.914ZM50.501,11.117C49.721,11.117 49.05,11.014 48.488,10.81C47.929,10.605 47.473,10.335 47.12,9.998C46.766,9.661 46.502,9.293 46.327,8.892L47.97,8.215C48.085,8.402 48.238,8.6 48.43,8.809C48.626,9.022 48.89,9.203 49.223,9.352C49.559,9.502 49.992,9.576 50.52,9.576C51.245,9.576 51.843,9.399 52.316,9.046C52.789,8.696 53.026,8.138 53.026,7.371L53.026,5.441L52.905,5.441C52.789,5.649 52.623,5.882 52.406,6.137C52.193,6.393 51.899,6.615 51.524,6.802C51.149,6.99 50.661,7.083 50.06,7.083C49.285,7.083 48.586,6.902 47.963,6.54C47.346,6.173 46.856,5.634 46.493,4.923C46.135,4.207 45.956,3.327 45.956,2.283C45.956,1.239 46.133,0.344 46.487,-0.402C46.845,-1.148 47.335,-1.719 47.957,-2.115C48.579,-2.515 49.285,-2.716 50.073,-2.716C50.682,-2.716 51.174,-2.613 51.549,-2.409C51.924,-2.209 52.216,-1.974 52.425,-1.706C52.638,-1.437 52.802,-1.201 52.917,-0.996L53.058,-0.996L53.058,-2.588L54.931,-2.588L54.931,7.448C54.931,8.291 54.735,8.984 54.343,9.525C53.951,10.066 53.42,10.467 52.751,10.727C52.086,10.987 51.336,11.117 50.501,11.117ZM50.482,5.498C51.032,5.498 51.496,5.37 51.875,5.115C52.259,4.855 52.549,4.484 52.745,4.002C52.945,3.517 53.045,2.935 53.045,2.257C53.045,1.597 52.947,1.015 52.751,0.512C52.555,0.009 52.267,-0.383 51.888,-0.664C51.509,-0.949 51.04,-1.092 50.482,-1.092C49.907,-1.092 49.427,-0.943 49.044,-0.645C48.66,-0.351 48.37,0.05 48.174,0.557C47.983,1.064 47.887,1.631 47.887,2.257C47.887,2.901 47.985,3.465 48.181,3.951C48.377,4.437 48.667,4.816 49.05,5.089C49.438,5.362 49.915,5.498 50.482,5.498ZM61.528,7.428C60.56,7.428 59.727,7.222 59.028,6.808C58.334,6.391 57.797,5.805 57.417,5.051C57.042,4.292 56.855,3.404 56.855,2.385C56.855,1.379 57.042,0.493 57.417,-0.274C57.797,-1.041 58.325,-1.64 59.003,-2.07C59.685,-2.501 60.481,-2.716 61.393,-2.716C61.947,-2.716 62.484,-2.624 63.004,-2.441C63.524,-2.258 63.991,-1.97 64.404,-1.578C64.817,-1.186 65.143,-0.677 65.382,-0.05C65.621,0.572 65.74,1.328 65.74,2.219L65.74,2.896L57.935,2.896L57.935,1.465L63.867,1.465C63.867,0.962 63.765,0.517 63.56,0.129C63.356,-0.263 63.068,-0.572 62.697,-0.798C62.331,-1.024 61.9,-1.137 61.406,-1.137C60.869,-1.137 60.4,-1.005 60,-0.741C59.604,-0.481 59.297,-0.14 59.079,0.282C58.866,0.7 58.76,1.154 58.76,1.644L58.76,2.762C58.76,3.418 58.875,3.977 59.105,4.437C59.339,4.897 59.665,5.249 60.083,5.492C60.501,5.73 60.988,5.85 61.547,5.85C61.909,5.85 62.239,5.798 62.537,5.696C62.836,5.59 63.094,5.432 63.311,5.223C63.528,5.014 63.694,4.757 63.81,4.45L65.618,4.776C65.474,5.308 65.214,5.775 64.839,6.176C64.468,6.572 64.001,6.881 63.439,7.102C62.881,7.32 62.243,7.428 61.528,7.428ZM72.382,7.23L72.382,-5.861L77.048,-5.861C78.066,-5.861 78.91,-5.675 79.579,-5.305C80.248,-4.934 80.749,-4.427 81.081,-3.783C81.414,-3.144 81.58,-2.424 81.58,-1.623C81.58,-0.817 81.411,-0.093 81.075,0.551C80.742,1.19 80.24,1.697 79.566,2.072C78.897,2.443 78.056,2.628 77.041,2.628L73.833,2.628L73.833,0.953L76.862,0.953C77.506,0.953 78.028,0.842 78.428,0.621C78.829,0.395 79.123,0.088 79.311,-0.3C79.498,-0.687 79.592,-1.128 79.592,-1.623C79.592,-2.117 79.498,-2.556 79.311,-2.939C79.123,-3.323 78.827,-3.623 78.422,-3.841C78.021,-4.058 77.493,-4.167 76.837,-4.167L74.357,-4.167L74.357,7.23L72.382,7.23ZM83.544,7.23L83.544,-2.588L85.391,-2.588L85.391,-1.028L85.493,-1.028C85.672,-1.557 85.988,-1.972 86.439,-2.275C86.895,-2.582 87.411,-2.735 87.986,-2.735C88.106,-2.735 88.246,-2.731 88.408,-2.722C88.574,-2.714 88.704,-2.703 88.798,-2.69L88.798,-0.862C88.721,-0.883 88.585,-0.907 88.389,-0.932C88.193,-0.962 87.997,-0.977 87.801,-0.977C87.349,-0.977 86.947,-0.881 86.593,-0.689C86.243,-0.502 85.966,-0.24 85.762,0.097C85.557,0.429 85.455,0.808 85.455,1.235L85.455,7.23L83.544,7.23ZM94.038,7.428C93.118,7.428 92.314,7.217 91.628,6.796C90.942,6.374 90.41,5.784 90.03,5.025C89.651,4.267 89.461,3.38 89.461,2.366C89.461,1.347 89.651,0.457 90.03,-0.306C90.41,-1.069 90.942,-1.661 91.628,-2.083C92.314,-2.505 93.118,-2.716 94.038,-2.716C94.959,-2.716 95.762,-2.505 96.448,-2.083C97.134,-1.661 97.667,-1.069 98.046,-0.306C98.425,0.457 98.615,1.347 98.615,2.366C98.615,3.38 98.425,4.267 98.046,5.025C97.667,5.784 97.134,6.374 96.448,6.796C95.762,7.217 94.959,7.428 94.038,7.428ZM94.045,5.824C94.641,5.824 95.135,5.666 95.527,5.351C95.92,5.036 96.209,4.616 96.397,4.092C96.589,3.568 96.684,2.99 96.684,2.36C96.684,1.733 96.589,1.158 96.397,0.634C96.209,0.105 95.92,-0.319 95.527,-0.638C95.135,-0.958 94.641,-1.118 94.045,-1.118C93.444,-1.118 92.945,-0.958 92.549,-0.638C92.157,-0.319 91.865,0.105 91.673,0.634C91.486,1.158 91.392,1.733 91.392,2.36C91.392,2.99 91.486,3.568 91.673,4.092C91.865,4.616 92.157,5.036 92.549,5.351C92.945,5.666 93.444,5.824 94.045,5.824ZM108.615,-2.588L105.055,7.23L103.009,7.23L99.443,-2.588L101.495,-2.588L103.981,4.967L104.083,4.967L106.563,-2.588L108.615,-2.588ZM110.213,7.23L110.213,-2.588L112.125,-2.588L112.125,7.23L110.213,7.23ZM111.179,-4.103C110.846,-4.103 110.561,-4.214 110.322,-4.435C110.088,-4.661 109.971,-4.93 109.971,-5.241C109.971,-5.556 110.088,-5.824 110.322,-6.046C110.561,-6.272 110.846,-6.385 111.179,-6.385C111.511,-6.385 111.794,-6.272 112.029,-6.046C112.267,-5.824 112.387,-5.556 112.387,-5.241C112.387,-4.93 112.267,-4.661 112.029,-4.435C111.794,-4.214 111.511,-4.103 111.179,-4.103ZM118.173,7.422C117.381,7.422 116.673,7.22 116.051,6.815C115.433,6.406 114.947,5.824 114.594,5.07C114.244,4.311 114.07,3.401 114.07,2.34C114.07,1.279 114.246,0.372 114.6,-0.383C114.958,-1.137 115.448,-1.714 116.07,-2.115C116.693,-2.515 117.398,-2.716 118.186,-2.716C118.796,-2.716 119.286,-2.613 119.656,-2.409C120.031,-2.209 120.321,-1.974 120.526,-1.706C120.734,-1.437 120.896,-1.201 121.011,-0.996L121.126,-0.996L121.126,-5.861L123.038,-5.861L123.038,7.23L121.171,7.23L121.171,5.703L121.011,5.703C120.896,5.911 120.73,6.15 120.513,6.418C120.3,6.687 120.006,6.921 119.631,7.122C119.256,7.322 118.77,7.422 118.173,7.422ZM118.595,5.792C119.145,5.792 119.609,5.647 119.989,5.357C120.372,5.063 120.662,4.656 120.858,4.137C121.058,3.617 121.158,3.012 121.158,2.321C121.158,1.639 121.06,1.043 120.864,0.531C120.668,0.02 120.381,-0.378 120.001,-0.664C119.622,-0.949 119.153,-1.092 118.595,-1.092C118.02,-1.092 117.541,-0.943 117.157,-0.645C116.773,-0.346 116.484,0.061 116.288,0.576C116.096,1.092 116,1.673 116,2.321C116,2.977 116.098,3.568 116.294,4.092C116.49,4.616 116.78,5.031 117.163,5.338C117.551,5.641 118.028,5.792 118.595,5.792ZM129.799,7.428C128.832,7.428 127.999,7.222 127.3,6.808C126.605,6.391 126.068,5.805 125.689,5.051C125.314,4.292 125.126,3.404 125.126,2.385C125.126,1.379 125.314,0.493 125.689,-0.274C126.068,-1.041 126.597,-1.64 127.274,-2.07C127.956,-2.501 128.753,-2.716 129.665,-2.716C130.219,-2.716 130.756,-2.624 131.276,-2.441C131.795,-2.258 132.262,-1.97 132.675,-1.578C133.089,-1.186 133.415,-0.677 133.653,-0.05C133.892,0.572 134.011,1.328 134.011,2.219L134.011,2.896L126.207,2.896L126.207,1.465L132.139,1.465C132.139,0.962 132.036,0.517 131.832,0.129C131.627,-0.263 131.34,-0.572 130.969,-0.798C130.602,-1.024 130.172,-1.137 129.678,-1.137C129.141,-1.137 128.672,-1.005 128.271,-0.741C127.875,-0.481 127.568,-0.14 127.351,0.282C127.138,0.7 127.031,1.154 127.031,1.644L127.031,2.762C127.031,3.418 127.146,3.977 127.376,4.437C127.611,4.897 127.937,5.249 128.354,5.492C128.772,5.73 129.26,5.85 129.818,5.85C130.18,5.85 130.511,5.798 130.809,5.696C131.107,5.59 131.365,5.432 131.582,5.223C131.8,5.014 131.966,4.757 132.081,4.45L133.89,4.776C133.745,5.308 133.485,5.775 133.11,6.176C132.739,6.572 132.273,6.881 131.71,7.102C131.152,7.32 130.515,7.428 129.799,7.428ZM135.934,7.23L135.934,-2.588L137.781,-2.588L137.781,-1.028L137.884,-1.028C138.062,-1.557 138.378,-1.972 138.83,-2.275C139.286,-2.582 139.801,-2.735 140.376,-2.735C140.496,-2.735 140.636,-2.731 140.798,-2.722C140.964,-2.714 141.094,-2.703 141.188,-2.69L141.188,-0.862C141.111,-0.883 140.975,-0.907 140.779,-0.932C140.583,-0.962 140.387,-0.977 140.191,-0.977C139.739,-0.977 139.337,-0.881 138.983,-0.689C138.634,-0.502 138.357,-0.24 138.152,0.097C137.947,0.429 137.845,0.808 137.845,1.235L137.845,7.23L135.934,7.23Z" style="fill-rule:nonzero;"/>
    </g>
</svg>
