<svg width="648" height="207" viewBox="0 0 648 207" fill="none" xmlns="http://www.w3.org/2000/svg">
<rect width="648" height="207" fill="black"/>
<path d="M333.805 76.4064V66.6492H282.358V144.707H333.805V134.95H293.889V110.557H326.709V100.799H293.889V76.4064H333.805Z" fill="white"/>
<path d="M356.665 144.707V66.6492H345.133V144.707H356.665Z" fill="white"/>
<path d="M365.381 105.678C365.381 127.743 378.464 145.594 401.083 145.594C416.828 145.594 424.145 134.395 426.363 128.962C426.585 128.408 427.028 127.853 427.583 128.186C428.248 128.519 428.026 129.184 427.693 130.071C426.917 132.289 426.585 134.284 426.585 136.502V144.707H438.116V103.904H404.409V113.661H426.474C424.7 125.303 416.828 135.837 403.079 135.837C385.671 135.837 376.912 122.42 376.912 105.678C376.912 88.9355 387.223 75.5194 403.744 75.5194C416.051 75.5194 423.813 80.6197 426.585 91.4857H438.116C435.788 77.8478 425.698 65.7622 403.744 65.7622C379.24 65.7622 365.381 83.6134 365.381 105.678Z" fill="white"/>
<path d="M501.775 76.4064V66.6492H450.328V144.707H501.775V134.95H461.859V110.557H494.679V100.799H461.859V76.4064H501.775Z" fill="white"/>
<path d="M513.104 144.707H524.635V115.435H536.831C548.362 115.435 554.35 117.985 556.457 126.301L561.224 144.707H575.195L566.99 121.533C565.438 117.209 562.444 112.996 551.578 112.441C550.913 112.441 550.358 112.22 550.358 111.444C550.358 110.778 550.802 110.557 551.467 110.446C563.331 108.893 571.647 100.91 571.647 90.5987C571.647 76.6282 563.885 66.6492 542.153 66.6492H513.104V144.707ZM524.635 105.678V76.4064H543.816C554.572 76.4064 560.115 81.6176 560.115 90.8204C560.115 99.1362 551.911 105.678 541.155 105.678H524.635Z" fill="white"/>
<path d="M82.1655 145.595H73L158.595 60L244.191 145.595H235.025L158.595 69.1655L82.1655 145.595Z" fill="white"/>
<path d="M111.33 145.595H102.164L158.595 89.1645L215.026 145.595H205.861L158.595 98.33L111.33 145.595Z" fill="white"/>
<path d="M140.495 145.595H131.329L158.595 118.329L185.862 145.595H176.696L158.595 127.495L140.495 145.595Z" fill="white"/>
</svg>
