<svg xmlns="http://www.w3.org/2000/svg" width="100%" height="100%" viewBox="0 0 3963 607" fill-rule="evenodd" stroke-linejoin="round" stroke-miterlimit="1.5" xmlns:v="https://vecta.io/nano"><style><![CDATA[.B{font-family:TrebuchetMS, Trebuchet MS, sans-serif}.C{font-size:50px}.D{stroke-width:6.25}]]></style><path d="M45.937 244.196h3868.36v144.157H45.937z" fill="#ebebeb"/><g fill="none" stroke="#000" class="D"><use href="#B"/><use href="#B" x="161.182"/><use href="#B" x="322.363"/><use href="#B" x="483.544"/><use href="#B" x="644.726"/><use href="#B" x="805.907"/><use href="#B" x="967.093"/><use href="#B" x="1128.273"/><use href="#B" x="1289.453"/><use href="#B" x="1450.633"/><use href="#B" x="1611.813"/><use href="#B" x="1772.993"/><use href="#B" x="1934.183"/><use href="#B" x="2095.363"/><use href="#B" x="2256.543"/><use href="#B" x="2417.723"/><use href="#B" x="2578.903"/><use href="#B" x="2740.083"/><use href="#B" x="2901.263"/><use href="#B" x="3062.453"/><use href="#B" x="3223.633"/><use href="#B" x="3384.813"/><use href="#B" x="3545.993"/><use href="#B" x="3707.173"/><use href="#B" x="3868.353"/></g><text x="113.417" y="334.707" class="B C">0</text><text x="274.599" y="334.707" class="B C">1</text><text x="435.78" y="334.707" class="B C">2</text><text x="596.962" y="334.707" class="B C">3</text><text x="758.143" y="334.707" class="B C">4</text><text x="919.325" y="334.707" class="B C">5</text><text x="1080.51" y="334.707" class="B C">6</text><text x="1241.69" y="334.707" class="B C">7</text><text x="1402.87" y="334.707" class="B C">8</text><text x="1564.05" y="334.707" class="B C">9</text><text x="1712.12" y="334.707" class="B C">10</text><text x="1873.3" y="334.707" class="B C">11</text><text x="2034.49" y="334.707" class="B C">12</text><text x="2195.67" y="334.707" class="B C">13</text><text x="2356.85" y="334.707" class="B C">14</text><text x="2518.03" y="334.707" class="B C">15</text><text x="2679.21" y="334.707" class="B C">16</text><text x="2840.39" y="334.707" class="B C">17</text><text x="3001.57" y="334.707" class="B C">18</text><text x="3162.76" y="334.707" class="B C">19</text><text x="3323.94" y="334.707" class="B C">20</text><text x="3485.12" y="334.707" class="B C">21</text><text x="3646.3" y="334.707" class="B C">22</text><text x="3807.48" y="334.707" class="B C">23</text><g fill="none" stroke="#000" class="D"><path d="M45.937 76.217v133.546M3914.29 76.217v133.546"/><path d="M45.937 142.99H3914.29"/></g><g transform="matrix(4.16667 0 0 4.16667 -8.76806 -1791.18)"><path d="M407.107 454.871h90.679v16.256h-90.679z" fill="#fff"/><text x="407.107" y="468.016" font-size="14" class="B">proving period</text></g><g fill="none" stroke="#000" class="D"><path d="M45.937 424.787v133.546m161.37-133.546v133.546"/><path d="M45.937 491.56h161.37"/></g><g transform="matrix(4.16667 0 0 4.16667 -1455.79 -1442.61)"><path d="M407.107 454.871h53.997v16.256h-53.997z" fill="#fff"/><text x="407.107" y="468.016" font-size="14" class="B">deadline</text></g><defs ><path id="B" d="M45.937 244.196v144.157"/></defs></svg>
